<?xml version="1.0" encoding="utf-8"?>
<!-- Generator: Adobe Illustrator 22.1.0, SVG Export Plug-In . SVG Version: 6.00 Build 0)  -->
<svg version="1.1" id="Layer_1" xmlns="http://www.w3.org/2000/svg" xmlns:xlink="http://www.w3.org/1999/xlink" x="0px" y="0px"
	 viewBox="0 0 210.1 14.7" style="enable-background:new 0 0 210.1 14.7;" xml:space="preserve">
<style type="text/css">
	.st0{fill:#878787;}
</style>
<title>Artboard 1</title>
<path class="st0" d="M110.2,7.3c0-0.7,0.2-1.2-0.2-1.8c-0.1-0.1-0.2-0.2-0.2-0.4c0.1-0.6,0.1-1.1-0.2-1.6c-0.1-1.3-1-2-2.3-2.6
	c-2.5-1.4-4.9-1.1-7.6,0c0,0.1-0.1,0.3-0.2,0.3c0.3,0,0.6,0,0.8-0.1c1.1-0.3,2.1-0.4,3.2-0.3c1.9,0.1,3.7,1.1,4.6,2.8
	c1.5,2,1.5,4.7,0,6.7c-0.5,1.2-1.4,2.2-2.5,2.7c-1.6,1-3.7,0.6-4.8-0.9c-0.5-0.8-0.8-1.7-0.8-2.6c0-0.5,0-1,0.1-1.5
	c0.3-1.1,0.9-2.1,1.7-2.8c0,0,0.2-0.2,0.3-0.2c1.3-0.4,2.8,0.1,3.7,1.1c0.2,0.3,0.2,0.6,0.1,0.9c0,0.8-0.3,1.6-0.8,2.2
	c-0.2,0.4-0.6,0.6-1,0.7c-0.4,0.1-0.9-0.1-0.7-0.7c0-0.2,0.1-0.4,0.2-0.6l0.7-1c0.1-0.1,0.2-0.3,0.1-0.5S104.4,7,104,7
	c-0.7,0.1-1.3,0.4-1.8,1c-0.3,0.5-0.4,1.2-0.1,1.7c0.5,0.9,1.5,1.4,2.6,1.3l0.7-0.1c1-0.9,1.8-2.1,2-3.5V6.7
	c-0.1-0.6-0.3-1.2-0.7-1.7c-0.9-0.8-2.2-1.2-3.4-1c-1.1,0-2.1,0.3-3.1,0.8c-0.7,0.6-1.3,1.4-1.6,2.2v0.2c0.2,0.8,0.2,1.6,0,2.4
	c0.1,0.8,0.3,1.5,0.7,2.2c0.5,1,1.4,1.6,2.5,1.9c0.2,0,0.4,0.2,0.5,0.2c0.8,0.4,1.7,0.6,2.6,0.6c0.6,0,1.1-0.2,1.6-0.5
	c0.8-0.5,1.6-1,2.4-1.6c0.7-0.7,1.1-1.6,1.4-2.5c0.2-0.5,0.3-1,0.2-1.5C110.2,8.2,110.2,7.8,110.2,7.3L110.2,7.3z M94.9,7.7h-6.4
	c-2.2,0-17.5-0.2-19.8-0.2c-3.2,0-6.3-0.1-9.6-0.1H38c-0.3,0-0.6,0-0.9,0.1L5.3,7.3C3.9,7.1,2.5,7.1,1.1,7.1H0
	c0.1,0.1,0.1,0.2,0.1,0.2c2.2,0,3.5,0.4,7.7,0.7l13.9,0.5l34.1,0.4C58.1,9.1,60.3,9,62.7,9c1,0,2.1,0.1,3.1,0.1s1.8,0.1,2.7,0.1
	c1.4-0.1,16.1,0.1,17.5,0.1c1.3,0.2,2.7,0.2,4,0.1c1.3,0.1,2.5,0,3.9,0c0.4,0.1,0.8-0.1,1-0.5c0-0.1,0.2,0,0.5-0.1s0.4-0.6,0.2-0.9
	C95.3,8,95.1,7.9,94.9,7.7L94.9,7.7z M115.2,7.7C115,7.8,114.8,8,114.6,8c-0.2,0.3-0.1,0.7,0.2,0.9c0.4,0.1,0.5,0,0.6,0.1
	c0.2,0.4,0.6,0.6,1,0.5c1.3,0,2.6,0.1,3.9,0c1.3,0.1,2.7,0,4-0.1c1.4,0,16.1-0.2,17.5-0.1c0.9,0,1.8-0.1,2.6-0.1s2.1-0.1,3.1-0.1
	c2.3,0,4.5,0.1,6.9-0.1l34.1-0.4L202.2,8c4.2-0.3,5.6-0.7,7.7-0.7c0,0,0-0.1,0.1-0.2h-1.1c-1.4,0-2.8,0-4.2,0.2l-31.8,0.2
	c-0.3-0.1-0.6-0.1-0.9-0.1h-21.1c-3.2,0-6.4,0.1-9.6,0.1c-2.2,0-17.6,0.2-19.8,0.2L115.2,7.7z"/>
</svg>
