<?xml version="1.0" encoding="utf-8"?>
<!-- Generator: Adobe Illustrator 22.0.1, SVG Export Plug-In . SVG Version: 6.00 Build 0)  -->
<svg version="1.1" id="Layer_1" xmlns="http://www.w3.org/2000/svg" xmlns:xlink="http://www.w3.org/1999/xlink" x="0px" y="0px"
	 viewBox="0 0 591.78 213.248" style="enable-background:new 0 0 591.78 213.248;" xml:space="preserve">
<style type="text/css">
	.st0{fill:#DE2652;}
	.st1{fill:#003976;}
</style>
<g>
	<path class="st0" d="M0,126.657c0.558-0.269,0.626-0.872,0.859-1.338c2.557-5.101,5.101-10.208,7.602-15.336
		c0.401-0.822,0.852-1.171,1.811-1.17c30.434,0.027,60.868,0.023,91.302,0.024c0.2,0,0.4,0.021,0.613,0.033
		c0.138,0.57-0.259,0.956-0.465,1.38c-2.701,5.541-5.455,11.057-8.11,16.619c-0.494,1.034-1.077,1.3-2.168,1.298
		c-29.88-0.052-59.761-0.066-89.642-0.083c-0.601,0-1.201,0.053-1.802,0.082C0,127.664,0,127.161,0,126.657z"/>
	<path class="st1" d="M418.299,32.24c1.58-1.875,3.058-3.346,4.757-4.584c4.176-3.045,8.964-4.454,14.007-4.823
		c5.059-0.37,10.148-0.292,15.086,1.172c4.62,1.371,8.473,3.831,11.087,8.237c1.214-1.243,2.273-2.525,3.526-3.573
		c4.125-3.451,8.988-5.124,14.285-5.668c6.044-0.62,12.036-0.475,17.821,1.593c7.828,2.798,11.951,8.762,12.1,16.753
		c0.252,13.432,0.095,26.871,0.151,40.307c0.004,1.041-0.247,1.359-1.325,1.352c-7.246-0.048-14.493-0.049-21.74,0
		c-1.087,0.007-1.323-0.333-1.319-1.363c0.037-10.165,0.035-20.331,0.012-30.496c-0.005-2.155-0.005-4.325-0.446-6.449
		c-1.004-4.835-3.378-6.994-8.279-7.387c-2.146-0.172-4.32-0.212-6.439,0.371c-4.467,1.228-6.542,4.46-7.379,8.756
		c-0.397,2.038-0.406,4.098-0.411,6.154c-0.023,9.612-0.034,19.224,0.019,28.835c0.007,1.262-0.339,1.595-1.59,1.583
		c-6.39-0.063-12.782-0.064-19.173,0.001c-1.234,0.013-1.478-0.383-1.475-1.531c0.025-11.322-0.014-22.645-0.01-33.967
		c0-1.269-0.201-2.496-0.475-3.718c-0.936-4.182-3.864-6.035-7.843-6.454c-2.242-0.236-4.523-0.264-6.739,0.343
		c-4.264,1.167-6.423,4.21-7.28,8.339c-0.429,2.067-0.576,4.173-0.575,6.288c0.003,9.712-0.024,19.425,0.032,29.137
		c0.007,1.266-0.324,1.575-1.574,1.564c-7.145-0.064-14.292-0.058-21.437-0.003c-1.155,0.009-1.417-0.337-1.415-1.445
		c0.033-18.67,0.036-37.34-0.005-56.01c-0.003-1.225,0.364-1.498,1.526-1.489c7.045,0.051,14.091,0.053,21.136-0.002
		c1.134-0.009,1.464,0.278,1.411,1.419C418.229,27.616,418.299,29.758,418.299,32.24z"/>
	<path class="st0" d="M222.505,108.857c1.365,0,2.705,0.228,3.999,0.627c2.423,0.746,3.312,2.509,2.517,4.919
		c-0.266,0.806-0.598,1.598-0.976,2.358c-6.187,12.447-12.592,24.791-18.493,37.371c-2.788,5.944-7.537,8.217-13.331,8.266
		c-24.054,0.205-48.11,0.079-72.165,0.107c-1.241,0.001-1.182-0.365-0.725-1.273c2.77-5.501,5.538-11.004,8.213-16.552
		c0.488-1.011,1.141-1.042,2.022-1.041c19.778,0.03,39.555,0.032,59.333,0.1c1.304,0.005,1.952-0.408,2.514-1.546
		c2.045-4.134,4.196-8.216,6.306-12.318c0.921-1.79,0.92-1.792-1.037-1.792c-19.325,0-38.649,0-57.974,0
		c-5.888,0-11.776,0.001-17.664-0.001c-1.685,0-1.687-0.005-0.91-1.569c2.721-5.479,5.475-10.943,8.138-16.451
		c0.474-0.98,1.033-1.249,2.064-1.247c13.738,0.029,27.476,0.022,41.214,0.021c1.007,0,2.015,0,3.022,0
		C178.571,108.843,207.86,108.856,222.505,108.857z"/>
	<path class="st1" d="M357.14,58.103c-7.599,0-15.199,0.036-22.797-0.033c-1.383-0.013-1.641,0.458-1.386,1.651
		c0.23,1.075,0.279,2.195,0.572,3.25c1.233,4.447,4.796,7.268,9.427,7.842c3.36,0.417,6.609,0.216,9.755-1.014
		c2.125-0.831,3.784-2.271,4.79-4.351c0.3-0.621,0.623-0.905,1.345-0.902c6.794,0.026,13.588,0.034,20.382-0.003
		c1.119-0.006,1.097,0.334,0.755,1.225c-2.789,7.265-8.022,12.138-14.989,15.253c-6.52,2.916-13.432,3.807-20.521,3.733
		c-6.166-0.064-12.179-0.893-17.868-3.386c-10.218-4.477-16.11-12.209-17.372-23.354c-0.972-8.587,0.524-16.602,5.896-23.574
		c4.502-5.843,10.628-9.226,17.712-10.881c9.78-2.285,19.536-2.156,29.011,1.346c11.049,4.084,17.553,12.063,19.334,23.783
		c0.394,2.589,0.584,5.188,0.505,7.809c-0.036,1.176-0.375,1.667-1.754,1.65C372.339,58.055,364.739,58.103,357.14,58.103z
		 M345.639,47.343c4.076,0,8.153-0.043,12.227,0.028c1.126,0.019,1.429-0.369,1.248-1.379c-0.071-0.395-0.076-0.801-0.156-1.193
		c-1.116-5.429-4.226-8.496-10.275-9.453c-8.396-1.327-14.781,2.321-16.284,10.709c-0.229,1.277,0.196,1.308,1.163,1.301
		C337.588,47.326,341.614,47.344,345.639,47.343z"/>
	<path class="st1" d="M323.766,153.313c-3.479,3.442-7.171,6.319-11.757,7.625c-8.65,2.462-17.273,2.411-25.431-1.771
		c-5.461-2.8-8.223-7.788-8.342-13.736c-0.283-14.083-0.149-28.174-0.207-42.262c-0.003-0.783,0.222-1.029,1.017-1.026
		c7.145,0.027,14.29,0.041,21.435-0.008c1.214-0.008,0.941,0.725,0.941,1.374c0.006,10.365,0.006,20.73,0.003,31.096
		c-0.001,2.263,0.095,4.512,0.588,6.734c0.836,3.765,2.863,5.865,6.624,6.374c2.38,0.322,4.818,0.324,7.18-0.322
		c3.942-1.078,6.413-4.272,7.066-8.814c0.289-2.007,0.285-4.005,0.288-6.011c0.014-9.61,0.027-19.221-0.02-28.831
		c-0.006-1.183,0.178-1.626,1.513-1.611c6.892,0.077,13.787,0.064,20.679,0.008c1.123-0.009,1.408,0.261,1.405,1.398
		c-0.039,18.718-0.036,37.435-0.005,56.153c0.002,1.059-0.157,1.452-1.358,1.44c-6.792-0.069-13.585-0.051-20.378-0.013
		c-0.948,0.005-1.307-0.189-1.267-1.219C323.825,157.699,323.766,155.505,323.766,153.313z"/>
	<path class="st1" d="M185.587,65.071c3.623,0,7.247,0.003,10.87-0.003c0.556-0.001,1.13-0.089,1.271,0.682
		c0.771,4.208,3.797,5.916,7.571,6.652c3.929,0.766,7.867,0.814,11.744-0.406c1.255-0.395,2.429-0.932,3.363-1.898
		c2.05-2.118,1.678-4.861-0.913-6.262c-2.178-1.177-4.604-1.608-6.994-2.109c-8.304-1.74-16.606-3.486-24.518-6.66
		c-3.182-1.276-6.244-2.811-8.581-5.398c-3.964-4.389-4.187-11.797-0.595-17.033c2.669-3.889,6.501-6.185,10.818-7.77
		c7.545-2.77,15.393-3.02,23.302-2.732c6.744,0.246,13.376,1.087,19.579,3.953c5.226,2.415,8.954,6.127,10.185,11.999
		c0.254,1.212-0.109,1.309-1.12,1.304c-6.894-0.031-13.789-0.011-20.683-0.029c-0.485-0.001-1.089,0.274-1.346-0.557
		c-0.944-3.056-3.335-4.346-6.244-4.935c-3.297-0.667-6.584-0.691-9.808,0.375c-1.462,0.483-2.739,1.271-3.353,2.802
		c-0.838,2.091-0.018,3.932,2.276,5.024c2.686,1.279,5.6,1.784,8.47,2.431c7.689,1.734,15.415,3.33,22.926,5.757
		c4.166,1.346,7.757,3.601,9.943,7.537c3.326,5.991,1.527,14.362-3.886,18.984c-4.691,4.006-10.286,5.876-16.201,6.979
		c-6.958,1.297-13.99,1.522-21.018,0.883c-7.208-0.656-14.27-1.999-20.508-6.031c-4.263-2.755-7.187-6.486-8.341-11.504
		c-0.458-1.994-0.439-2.035,1.524-2.036C178.743,65.071,182.165,65.071,185.587,65.071z"/>
	<path class="st1" d="M81.51,39.373c-2.339,0-4.643,0-6.946,0c-4.781,0-9.561,0.011-14.342-0.018
		c-0.463-0.003-1.099,0.351-1.354-0.503c-0.931-3.13-3.359-4.514-6.319-5.052c-3.392-0.617-6.801-0.693-10.046,0.759
		c-2.207,0.988-3.171,2.905-2.647,4.967c0.376,1.481,1.511,2.204,2.769,2.75c3.322,1.441,6.899,1.977,10.388,2.82
		c7.127,1.722,14.362,3.08,21.208,5.78c4.649,1.833,8.126,5.022,9.362,10.05c1.591,6.473-1.177,13.315-6.772,17.303
		c-4.766,3.398-10.203,4.959-15.886,5.854c-6.088,0.959-12.215,1.133-18.339,0.567c-7.016-0.648-13.866-1.984-19.915-5.932
		c-4.499-2.936-7.387-6.968-8.416-12.293c-0.203-1.049,0.028-1.386,1.154-1.379c6.944,0.048,13.889,0.023,20.833,0.026
		c0.574,0,1.253-0.193,1.409,0.69c0.731,4.134,3.651,5.907,7.384,6.652c3.829,0.764,7.674,0.799,11.439-0.431
		c1.701-0.556,3.251-1.38,4.06-3.11c1.023-2.187,0.243-4.171-2.172-5.289c-2.417-1.12-5.038-1.594-7.622-2.149
		c-8.348-1.793-16.688-3.622-24.486-7.251c-2.985-1.389-5.712-3.168-7.548-6.019c-3.07-4.766-2.316-12.344,1.645-16.977
		c3.8-4.445,8.886-6.549,14.385-7.811c7.121-1.635,14.338-1.57,21.575-0.976c5.271,0.432,10.407,1.402,15.204,3.714
		C77.057,28.787,80.686,32.951,81.51,39.373z"/>
	<path class="st1" d="M533.57,65.071c3.522,0,7.045-0.003,10.567,0.003c0.531,0.001,1.16-0.157,1.291,0.656
		c0.657,4.091,3.497,5.853,7.184,6.628c3.829,0.805,7.654,0.856,11.436-0.33c1.106-0.347,2.156-0.795,3.03-1.584
		c2.506-2.26,2.105-5.388-0.929-6.842c-1.993-0.955-4.156-1.413-6.304-1.868c-8.106-1.719-16.197-3.492-23.896-6.662
		c-3.124-1.286-6.12-2.838-8.374-5.438c-3.843-4.435-4.063-11.709-0.568-16.956c3.151-4.73,7.884-7.119,13.121-8.696
		c7.382-2.223,14.977-2.201,22.549-1.749c5.698,0.34,11.332,1.316,16.555,3.86c5.202,2.534,8.789,6.355,9.896,12.234
		c0.193,1.027-0.147,1.058-0.939,1.056c-6.793-0.019-13.586-0.008-20.38-0.016c-0.471-0.001-1.01,0.159-1.221-0.55
		c-0.916-3.075-3.284-4.403-6.192-4.995c-2.94-0.599-5.887-0.578-8.798,0.201c-0.618,0.165-1.212,0.466-1.777,0.777
		c-1.526,0.841-2.37,2.087-2.323,3.903c0.046,1.76,1.103,2.711,2.533,3.401c2.588,1.25,5.397,1.755,8.163,2.398
		c7.483,1.737,15.017,3.304,22.3,5.781c4.886,1.662,8.847,4.527,10.549,9.694c2.178,6.615-0.595,14.121-6.64,18.361
		c-4.704,3.3-10.04,4.846-15.616,5.734c-6.135,0.977-12.315,1.156-18.488,0.577c-7.016-0.657-13.868-1.993-19.914-5.961
		c-4.591-3.013-7.482-7.148-8.433-12.603c-0.146-0.836,0.084-1.039,0.9-1.031C526.424,65.092,529.997,65.071,533.57,65.071z"/>
	<path class="st1" d="M374.467,143.184c3.522,0,7.045,0.018,10.567-0.014c0.805-0.007,1.141,0.127,1.348,1.063
		c0.835,3.782,3.677,5.517,7.161,6.178c3.609,0.684,7.277,0.756,10.889-0.204c1.321-0.351,2.562-0.881,3.59-1.806
		c2.371-2.133,2.019-5.225-0.809-6.671c-2.608-1.334-5.499-1.758-8.321-2.38c-8.234-1.815-16.483-3.594-24.16-7.246
		c-3.402-1.618-6.458-3.694-8.116-7.28c-2.588-5.598-0.928-12.874,3.94-17.291c4.113-3.731,9.129-5.597,14.458-6.493
		c10.1-1.698,20.194-1.524,30.126,1.188c5.125,1.399,9.716,3.776,12.715,8.457c1.095,1.709,1.71,3.6,2.155,5.563
		c0.169,0.747,0.066,1.078-0.828,1.074c-6.893-0.032-13.787-0.018-20.681-0.015c-0.469,0-0.879-0.006-1.063-0.584
		c-0.995-3.114-3.41-4.423-6.409-4.902c-2.995-0.479-5.999-0.588-8.932,0.358c-1.563,0.504-2.918,1.322-3.514,3.006
		c-0.751,2.119,0.17,3.993,2.557,5.058c2.384,1.063,4.931,1.592,7.457,2.17c7.538,1.724,15.107,3.339,22.462,5.762
		c4.961,1.635,9.162,4.404,10.777,9.625c2.109,6.817,0.024,13.896-6.636,18.607c-4.47,3.162-9.574,4.676-14.885,5.575
		c-6.675,1.13-13.409,1.261-20.125,0.579c-6.704-0.681-13.246-2.083-18.99-5.914c-4.502-3.002-7.441-7.04-8.308-12.498
		c-0.153-0.966,0.145-0.976,0.858-0.972C367.322,143.193,370.895,143.184,374.467,143.184z"/>
	<path class="st1" d="M287.016,0c0,7.666,0.035,15.062-0.032,22.458c-0.012,1.353,0.368,1.685,1.693,1.643
		c3.922-0.126,7.85-0.077,11.775-0.147c0.898-0.016,1.333,0.097,1.298,1.185c-0.1,3.067-0.11,6.14-0.059,9.208
		c0.018,1.097-0.254,1.458-1.417,1.435c-3.974-0.079-7.952,0.008-11.927-0.056c-1.081-0.017-1.35,0.327-1.334,1.362
		c0.137,9.006-0.194,18.015,0.204,27.02c0.189,4.284,1.919,6.18,6.112,6.737c1.507,0.2,3.009,0.261,4.516,0.138
		c0.709-0.058,0.989,0.137,0.983,0.886c-0.027,3.472-0.024,6.945,0,10.418c0.004,0.621-0.182,0.866-0.819,0.963
		c-5.67,0.865-11.352,1.424-17.099,0.964c-2.805-0.225-5.561-0.63-8.197-1.674c-5.038-1.994-7.162-6.14-8.127-11.089
		c-0.664-3.405-0.892-6.862-0.923-10.331c-0.07-7.951-0.168-15.903-0.191-23.854c-0.003-1.169-0.303-1.526-1.509-1.506
		c-4.629,0.074-9.261-0.015-13.89,0.062c-1.171,0.019-1.397-0.346-1.398-1.43c-0.003-3.018-0.107-6.038-0.245-9.054
		c-0.045-0.987,0.241-1.281,1.243-1.271c4.881,0.05,9.764-0.005,14.645,0.044c1.031,0.01,1.382-0.245,1.357-1.328
		c-0.098-4.226-0.093-8.454-0.147-12.682c-0.008-0.621-0.065-1.144,0.699-1.432C271.735,5.832,279.232,2.966,287.016,0z"/>
	<path class="st1" d="M258.952,121.221c0,12.785-0.021,25.57,0.033,38.355c0.005,1.291-0.36,1.552-1.586,1.541
		c-6.845-0.062-13.691-0.055-20.536-0.004c-1.062,0.008-1.322-0.266-1.32-1.323c0.031-25.721,0.032-51.442-0.002-77.162
		c-0.002-1.128,0.272-1.42,1.406-1.41c6.845,0.057,13.691,0.058,20.536,0c1.189-0.01,1.501,0.31,1.497,1.498
		C258.935,95.551,258.952,108.386,258.952,121.221z"/>
	<path class="st0" d="M117.298,131.81c-2.351,4.747-4.583,9.266-6.827,13.779c-10.957,22.044-21.924,44.083-32.851,66.142
		c-0.537,1.083-1.11,1.531-2.37,1.516c-6.237-0.074-12.475-0.059-18.712-0.012c-1.22,0.009-1.498-0.19-0.907-1.376
		c13.114-26.338,26.203-52.69,39.29-79.041c0.304-0.611,0.594-1.036,1.431-1.031C103.243,131.828,110.133,131.81,117.298,131.81z"/>
	<path class="st0" d="M130.946,60.576c0.643-0.264,12.276-24.159,17.879-35.541c0.461-0.937,0.963-1.324,2.029-1.316
		c6.533,0.047,13.066,0.024,19.621,0.024c0.043,0.578-0.345,1.014-0.583,1.489c-13.111,26.202-26.242,52.395-39.322,78.613
		c-0.54,1.082-1.131,1.387-2.28,1.377c-6.337-0.057-12.674-0.027-19.024-0.027c-0.045-0.645,0.336-1.08,0.574-1.56
		c3.226-6.512,10.377-20.653,10.382-21.343c0.973-1.925,1.965-3.842,2.917-5.777C125.751,71.206,128.345,65.89,130.946,60.576z"/>
	<path class="st1" d="M130.946,60.576c-2.601,5.313-5.195,10.63-7.806,15.939c-0.952,1.936-1.944,3.852-2.917,5.777
		c-2.097-3.046-3.712-6.371-5.519-9.584c-8.935-15.887-17.841-31.79-26.755-47.689c-0.214-0.382-0.404-0.778-0.701-1.351
		c0.633,0,1.109-0.001,1.586,0c6.895,0.022,13.79,0.075,20.684,0.036c1.132-0.006,1.693,0.406,2.2,1.346
		C118.107,36.903,124.531,48.737,130.946,60.576z"/>
	<path class="st0" d="M97.306,128.082c1.721-3.475,3.315-6.698,4.912-9.919c1.382-2.787,2.774-5.569,4.146-8.361
		c0.278-0.566,0.539-0.986,1.312-0.983c6.937,0.03,13.874,0.017,20.821,0.017c0.085,0.663-0.32,1.098-0.552,1.57
		c-2.703,5.484-5.45,10.947-8.134,16.44c-0.454,0.93-0.993,1.271-2.052,1.263C111.029,128.055,104.297,128.082,97.306,128.082z"/>
</g>
</svg>
