<?xml version="1.0" encoding="utf-8"?>
<!-- Generator: Adobe Illustrator 22.0.1, SVG Export Plug-In . SVG Version: 6.00 Build 0)  -->
<svg version="1.1" id="Layer_1" xmlns="http://www.w3.org/2000/svg" xmlns:xlink="http://www.w3.org/1999/xlink" x="0px" y="0px"
	 viewBox="0 0 1200 47.3" style="enable-background:new 0 0 1200 47.3;" xml:space="preserve">
<style type="text/css">
	.st0{enable-background:new    ;}
	.st1{fill:#D40E14;}
	.st2{fill:#003976;}
	.st3{fill:none;stroke:#D40E14;stroke-width:3;stroke-miterlimit:10;}
	.st4{fill:none;stroke:#003976;stroke-width:3;stroke-miterlimit:10;}
	.st5{fill:none;}
	.st6{fill:#DE2652;}
</style>
<g class="st0">
	<path class="st1" d="M537.5,33.9V20.7c0-0.2,0-0.3,0.1-0.4c0-0.1,0.1-0.2,0.2-0.2c0.2-0.2,0.7-0.2,1.4-0.2c0.7,0,1.2,0.1,1.4,0.2
		c0.1,0.1,0.1,0.1,0.2,0.2c0,0.1,0.1,0.2,0.1,0.4v13.2c0,0.2,0,0.3-0.1,0.4c0,0.1-0.1,0.2-0.2,0.2c-0.2,0.2-0.7,0.2-1.4,0.2
		c-0.7,0-1.2-0.1-1.4-0.2C537.6,34.4,537.5,34.1,537.5,33.9z"/>
	<path class="st1" d="M543.3,20.5c0-0.2,0.1-0.3,0.2-0.5c0.1-0.1,0.3-0.1,0.6-0.2c0.3,0,0.6-0.1,1-0.1c0.4,0,0.8,0,1.1,0.1
		c0.3,0.1,0.5,0.2,0.7,0.5l5.2,8.7v-8.4c0-0.2,0-0.3,0.1-0.4c0-0.1,0.1-0.2,0.2-0.2c0.1-0.1,0.3-0.1,0.5-0.2c0.2,0,0.5-0.1,0.9-0.1
		c0.4,0,0.7,0,0.9,0.1c0.2,0,0.4,0.1,0.5,0.2c0.2,0.1,0.2,0.3,0.2,0.6v13.2c0,0.2,0,0.3-0.1,0.4c0,0.1-0.1,0.2-0.2,0.2
		c-0.1,0.1-0.3,0.1-0.5,0.2c-0.2,0-0.5,0.1-0.9,0.1c-0.4,0-0.7,0-0.9-0.1s-0.4-0.1-0.5-0.2c-0.1-0.1-0.2-0.2-0.2-0.3l-4.9-8.2v8
		c0,0.2,0,0.3-0.1,0.4c0,0.1-0.1,0.2-0.2,0.2c-0.1,0.1-0.3,0.1-0.5,0.2c-0.2,0-0.5,0.1-0.9,0.1c-0.4,0-0.7,0-0.9-0.1
		c-0.2,0-0.4-0.1-0.5-0.2c-0.2-0.1-0.2-0.4-0.2-0.6v-12l-0.3-0.6C543.4,20.9,543.3,20.6,543.3,20.5z"/>
	<path class="st1" d="M557.7,20.5c0-0.2,0.1-0.3,0.2-0.5c0.1-0.1,0.3-0.1,0.6-0.2c0.3,0,0.6-0.1,1-0.1c0.4,0,0.8,0,1.1,0.1
		c0.3,0.1,0.5,0.2,0.7,0.5l5.2,8.7v-8.4c0-0.2,0-0.3,0.1-0.4c0-0.1,0.1-0.2,0.2-0.2c0.1-0.1,0.3-0.1,0.5-0.2c0.2,0,0.5-0.1,0.9-0.1
		c0.4,0,0.7,0,0.9,0.1c0.2,0,0.4,0.1,0.5,0.2c0.2,0.1,0.2,0.3,0.2,0.6v13.2c0,0.2,0,0.3-0.1,0.4c0,0.1-0.1,0.2-0.2,0.2
		c-0.1,0.1-0.3,0.1-0.5,0.2c-0.2,0-0.5,0.1-0.9,0.1c-0.4,0-0.7,0-0.9-0.1s-0.4-0.1-0.5-0.2c-0.1-0.1-0.2-0.2-0.2-0.3l-4.9-8.2v8
		c0,0.2,0,0.3-0.1,0.4c0,0.1-0.1,0.2-0.2,0.2c-0.1,0.1-0.3,0.1-0.5,0.2c-0.2,0-0.5,0.1-0.9,0.1c-0.4,0-0.7,0-0.9-0.1
		c-0.2,0-0.4-0.1-0.5-0.2c-0.2-0.1-0.2-0.4-0.2-0.6v-12l-0.3-0.6C557.9,20.9,557.7,20.6,557.7,20.5z"/>
	<path class="st1" d="M572.2,27.3c0-1.2,0.2-2.3,0.5-3.2s0.8-1.8,1.4-2.4c0.6-0.7,1.3-1.2,2.2-1.5c0.8-0.4,1.8-0.5,2.9-0.5
		c1.1,0,2,0.2,2.8,0.5c0.8,0.4,1.6,0.9,2.1,1.5c0.6,0.7,1,1.5,1.4,2.4c0.3,1,0.5,2,0.5,3.2c0,1.2-0.2,2.2-0.5,3.2
		c-0.3,0.9-0.8,1.8-1.4,2.4c-0.6,0.7-1.3,1.2-2.1,1.5S580.1,35,579,35c-1.1,0-2-0.2-2.8-0.5s-1.6-0.9-2.2-1.5
		c-0.6-0.7-1-1.5-1.4-2.4S572.2,28.5,572.2,27.3z M575.6,27.3c0,0.9,0.1,1.6,0.2,2.2c0.2,0.6,0.4,1.1,0.7,1.5s0.7,0.7,1.1,0.9
		s0.9,0.3,1.4,0.3c0.8,0,1.5-0.2,2-0.7c0.5-0.4,0.9-1.1,1.1-1.8c0.2-0.8,0.3-1.6,0.3-2.4s-0.1-1.6-0.2-2.2c-0.2-0.6-0.4-1.1-0.7-1.6
		s-0.7-0.7-1.1-0.9s-0.9-0.3-1.4-0.3c-0.5,0-1,0.1-1.4,0.3s-0.8,0.5-1.1,0.9s-0.5,0.9-0.7,1.6C575.7,25.7,575.6,26.4,575.6,27.3z"/>
	<path class="st1" d="M586.8,20.4c0-0.1,0-0.2,0.1-0.2c0-0.1,0.1-0.1,0.1-0.1c0.1-0.1,0.3-0.1,0.5-0.2s0.5-0.1,0.9-0.1
		c0.4,0,0.7,0,0.9,0.1c0.2,0,0.4,0.1,0.5,0.2c0.1,0.1,0.2,0.3,0.4,0.7l3.2,9l3.1-9c0.1-0.1,0.1-0.3,0.2-0.4c0.1-0.1,0.1-0.2,0.2-0.3
		c0.1-0.1,0.3-0.1,0.5-0.2s0.5-0.1,0.9-0.1c0.4,0,0.7,0,0.9,0.1c0.2,0,0.4,0.1,0.5,0.2c0.1,0.1,0.2,0.2,0.2,0.4
		c0,0.2-0.1,0.4-0.2,0.7L595,34c-0.1,0.2-0.1,0.3-0.2,0.3c-0.1,0.1-0.1,0.1-0.2,0.2c-0.1,0.1-0.3,0.1-0.5,0.2
		c-0.2,0-0.5,0.1-0.9,0.1c-0.4,0-0.7,0-0.9-0.1c-0.2,0-0.4-0.1-0.5-0.2c-0.1,0-0.1-0.1-0.2-0.2s-0.1-0.2-0.2-0.3L587,21.1
		C586.9,20.8,586.8,20.6,586.8,20.4z"/>
</g>
<g class="st0">
	<path class="st2" d="M600,34.1c0-0.1,0.1-0.4,0.2-0.7l4.6-12.9c0.1-0.2,0.1-0.3,0.2-0.3s0.1-0.1,0.1-0.2c0.1-0.1,0.3-0.1,0.5-0.2
		c0.2,0,0.6-0.1,1-0.1c0.5,0,0.8,0,1,0.1c0.2,0,0.4,0.1,0.5,0.2c0.1,0.1,0.2,0.3,0.3,0.5l4.6,12.9c0.1,0.3,0.2,0.6,0.2,0.7
		c0,0.1,0,0.2-0.1,0.2s-0.1,0.1-0.1,0.1c-0.1,0.1-0.3,0.1-0.5,0.2c-0.2,0-0.5,0.1-0.9,0.1c-0.4,0-0.7,0-0.9-0.1
		c-0.2,0-0.4-0.1-0.5-0.2c-0.1-0.1-0.1-0.2-0.2-0.3c-0.1-0.1-0.1-0.3-0.2-0.4l-0.7-2.3h-5l-0.7,2.3c0,0.1-0.1,0.3-0.2,0.4
		c-0.1,0.1-0.1,0.2-0.2,0.3c-0.1,0.1-0.3,0.1-0.5,0.2c-0.2,0-0.5,0.1-0.9,0.1c-0.4,0-0.7,0-0.9-0.1c-0.2,0-0.4-0.1-0.5-0.2
		C600.1,34.4,600,34.3,600,34.1z M604.8,29h3.3l-1.7-5.1L604.8,29z"/>
	<path class="st2" d="M613.1,21.9c0-0.3,0-0.6,0.1-0.9c0.1-0.3,0.1-0.5,0.2-0.7c0.1-0.2,0.2-0.3,0.4-0.3c0.2,0,0.3-0.1,0.6-0.1h10.2
		c0.2,0,0.3,0,0.4,0c0.1,0,0.2,0,0.2,0.1c0.1,0.1,0.1,0.1,0.2,0.2s0,0.2,0,0.4c0,0.2,0,0.5-0.1,0.8c-0.1,0.3-0.1,0.6-0.2,0.8
		c-0.1,0.2-0.2,0.3-0.4,0.3s-0.3,0.1-0.6,0.1H621v11.2c0,0.2,0,0.3-0.1,0.4c0,0.1-0.1,0.2-0.2,0.2c-0.2,0.2-0.7,0.2-1.4,0.2
		c-0.7,0-1.2-0.1-1.4-0.2c-0.2-0.1-0.2-0.3-0.2-0.6V22.6H614c-0.3,0-0.5,0-0.7-0.1c-0.1-0.1-0.2-0.1-0.2-0.2S613.1,22.1,613.1,21.9z
		"/>
	<path class="st2" d="M627.1,33.9V20.7c0-0.2,0-0.3,0.1-0.4c0-0.1,0.1-0.2,0.2-0.2c0.2-0.2,0.7-0.2,1.4-0.2c0.7,0,1.2,0.1,1.4,0.2
		c0.1,0.1,0.1,0.1,0.2,0.2c0,0.1,0.1,0.2,0.1,0.4v13.2c0,0.2,0,0.3-0.1,0.4s-0.1,0.2-0.2,0.2c-0.2,0.2-0.7,0.2-1.4,0.2
		c-0.7,0-1.2-0.1-1.4-0.2C627.2,34.4,627.1,34.1,627.1,33.9z"/>
	<path class="st2" d="M632.1,20.4c0-0.1,0-0.2,0.1-0.2c0-0.1,0.1-0.1,0.1-0.1c0.1-0.1,0.3-0.1,0.5-0.2c0.2,0,0.5-0.1,0.9-0.1
		c0.4,0,0.7,0,0.9,0.1s0.4,0.1,0.5,0.2c0.1,0.1,0.2,0.3,0.4,0.7l3.2,9l3.1-9c0.1-0.1,0.1-0.3,0.2-0.4c0.1-0.1,0.1-0.2,0.2-0.3
		c0.1-0.1,0.3-0.1,0.5-0.2s0.5-0.1,0.9-0.1c0.4,0,0.7,0,0.9,0.1c0.2,0,0.4,0.1,0.5,0.2c0.1,0.1,0.2,0.2,0.2,0.4
		c0,0.2-0.1,0.4-0.2,0.7L640.3,34c-0.1,0.2-0.1,0.3-0.2,0.3s-0.1,0.1-0.2,0.2c-0.1,0.1-0.3,0.1-0.5,0.2c-0.2,0-0.5,0.1-0.9,0.1
		c-0.4,0-0.7,0-0.9-0.1c-0.2,0-0.4-0.1-0.5-0.2c-0.1,0-0.1-0.1-0.2-0.2S637,34.2,637,34l-4.7-12.9C632.1,20.8,632.1,20.6,632.1,20.4
		z"/>
	<path class="st2" d="M646.8,33.7V20.8c0-0.2,0-0.3,0.1-0.5c0.1-0.1,0.1-0.2,0.2-0.3c0.1-0.1,0.2-0.1,0.4-0.2c0.2,0,0.5-0.1,0.8-0.1
		h7.6c0.2,0,0.3,0,0.4,0c0.1,0,0.2,0,0.2,0.1c0.1,0.1,0.1,0.1,0.2,0.2c0,0.1,0,0.2,0,0.4c0,0.2,0,0.5-0.1,0.8s-0.1,0.6-0.2,0.8
		c-0.1,0.2-0.2,0.3-0.4,0.3s-0.3,0.1-0.6,0.1h-5.4v2.9h4.8c0.2,0,0.3,0,0.4,0c0.1,0,0.2,0,0.2,0.1c0.1,0.1,0.1,0.1,0.2,0.2
		c0,0.1,0,0.2,0,0.4c0,0.2,0,0.5-0.1,0.8c-0.1,0.3-0.1,0.6-0.2,0.8c-0.1,0.2-0.2,0.3-0.4,0.3s-0.3,0.1-0.6,0.1h-4.5v3.7h5.9
		c0.2,0,0.3,0,0.4,0c0.1,0,0.2,0,0.2,0.1c0.1,0.1,0.1,0.1,0.2,0.2c0,0.1,0,0.2,0,0.4c0,0.2,0,0.5-0.1,0.8s-0.1,0.6-0.2,0.8
		c-0.1,0.2-0.2,0.3-0.4,0.3c-0.1,0-0.3,0.1-0.6,0.1h-7.3c-0.4,0-0.6,0-0.8-0.1c-0.2,0-0.3-0.1-0.4-0.2c-0.1-0.1-0.1-0.2-0.2-0.3
		C646.9,34,646.8,33.9,646.8,33.7z"/>
	<path class="st2" d="M657.6,33.1c0-0.2,0-0.4,0.1-0.6c0.1-0.2,0.2-0.4,0.3-0.5c0.4-0.6,0.7-0.8,0.9-0.8c0.2,0,0.6,0.2,1.3,0.5
		c0.3,0.2,0.7,0.3,1.2,0.4c0.5,0.1,1.1,0.2,1.7,0.2c0.6,0,1.1-0.1,1.4-0.2c0.4-0.1,0.7-0.3,0.8-0.6c0.2-0.3,0.2-0.6,0.2-0.9
		c0-0.5-0.3-0.9-0.9-1.3c-0.6-0.3-1.5-0.6-2.6-0.9c-0.6-0.2-1.1-0.3-1.7-0.6c-0.5-0.2-1-0.5-1.4-0.8s-0.7-0.7-0.9-1.2
		c-0.2-0.5-0.3-1-0.3-1.7c0-0.7,0.1-1.3,0.4-1.9c0.3-0.6,0.6-1,1.1-1.4c0.5-0.4,1-0.7,1.7-0.9c0.7-0.2,1.4-0.3,2.2-0.3
		c0.8,0,1.4,0.1,1.9,0.2s1,0.2,1.4,0.4c0.5,0.2,0.9,0.4,1.1,0.6c0.3,0.2,0.4,0.4,0.4,0.6c0,0.2,0,0.4-0.1,0.6
		c-0.1,0.2-0.2,0.4-0.3,0.6c-0.1,0.2-0.2,0.4-0.4,0.5c-0.1,0.1-0.3,0.2-0.5,0.2c-0.2,0-0.5,0-0.7-0.1c-0.2-0.1-0.4-0.2-0.6-0.3
		c-0.2-0.1-0.5-0.2-0.9-0.3s-0.9-0.1-1.5-0.1c-0.5,0-0.9,0.1-1.3,0.3c-0.3,0.2-0.6,0.4-0.7,0.6c-0.1,0.2-0.2,0.5-0.2,0.7
		c0,0.4,0.2,0.6,0.5,0.9c0.3,0.2,0.7,0.4,1.2,0.6c0.5,0.1,0.9,0.3,1.4,0.4c0.6,0.2,1.2,0.3,1.6,0.5c0.5,0.2,0.9,0.4,1.3,0.7
		c0.4,0.3,0.8,0.6,1.1,1s0.5,0.8,0.6,1.2c0.1,0.4,0.2,0.8,0.2,1.3c0,0.8-0.1,1.5-0.4,2c-0.3,0.6-0.7,1.1-1.2,1.5
		c-0.5,0.4-1.1,0.7-1.8,0.9c-0.7,0.2-1.4,0.3-2.3,0.3c-0.8,0-1.6-0.1-2.3-0.2c-0.7-0.1-1.2-0.3-1.6-0.5c-0.4-0.2-0.7-0.3-0.9-0.4
		c-0.3-0.1-0.5-0.3-0.6-0.4C657.7,33.4,657.6,33.2,657.6,33.1z"/>
</g>
<line id="line1_4_" vector-effect="non-scaling-stroke" class="st3" x1="538.8" y1="21.9" x2="96.8" y2="22.1"/>
<line id="line2_4_" vector-effect="non-scaling-stroke" class="st4" x1="1102.5" y1="21.9" x2="666.6" y2="21.9"/>
<g>
	<title>Artboard 1</title>
	<path class="st1" d="M99.4,37.7c0.1-0.1,0.2-0.2,0.2-0.3c0.1-0.1,0.1-0.3,0.1-0.5V22.2c0-0.2,0-0.3-0.1-0.5c0-0.1-0.1-0.2-0.2-0.3
		c-0.2-0.2-0.7-0.3-1.6-0.3c-0.8,0-1.3,0.1-1.6,0.3c-0.1,0.1-0.2,0.2-0.2,0.3c0,0.1-0.1,0.3-0.1,0.5V37c0,0.3,0.1,0.5,0.3,0.7
		c0.2,0.2,0.8,0.3,1.6,0.3S99.2,37.9,99.4,37.7z M88.3,37.8c0.8-0.3,1.5-0.7,2.1-1.2c0.5-0.5,1-1.1,1.2-1.8c0.3-0.7,0.4-1.5,0.4-2.3
		V22.2c0-0.3-0.1-0.5-0.3-0.7c-0.2-0.2-0.8-0.3-1.6-0.3s-1.3,0.1-1.6,0.3c-0.1,0.1-0.2,0.2-0.2,0.3c-0.1,0.1-0.1,0.3-0.1,0.5v10.3
		c0,0.4-0.1,0.8-0.2,1.2c-0.2,0.5-0.5,0.8-0.9,1.1c-0.6,0.3-1.2,0.4-1.9,0.4c-0.5,0-0.9-0.1-1.4-0.2c-0.4-0.1-0.7-0.3-0.9-0.6
		c-0.2-0.2-0.4-0.5-0.5-0.9c-0.1-0.4-0.2-0.7-0.2-1.1V22.2c0-0.3-0.1-0.5-0.3-0.7c-0.2-0.2-0.8-0.3-1.6-0.3s-1.3,0.1-1.6,0.3
		c-0.1,0.1-0.2,0.2-0.2,0.3c0,0.2-0.1,0.3-0.1,0.5v10.3c0,0.8,0.1,1.6,0.4,2.3c0.2,0.7,0.7,1.3,1.2,1.8c0.6,0.5,1.3,1,2.1,1.2
		C84.2,38.4,86.3,38.4,88.3,37.8L88.3,37.8z M70.2,37.7c0.1-0.1,0.2-0.2,0.2-0.3c0-0.1,0.1-0.3,0.1-0.5V24.3h3.7
		c0.2,0,0.4,0,0.7-0.1c0.2-0.1,0.3-0.2,0.4-0.3c0.1-0.3,0.2-0.6,0.3-0.9c0.1-0.3,0.1-0.6,0.1-0.9c0-0.1,0-0.3-0.1-0.4
		c0-0.1-0.1-0.2-0.2-0.3c-0.1,0-0.2-0.1-0.3-0.1c-0.2,0-0.3,0-0.5,0H63c-0.2,0-0.4,0-0.7,0.1c-0.2,0.1-0.3,0.2-0.4,0.3
		c-0.1,0.3-0.2,0.5-0.3,0.8c-0.1,0.3-0.1,0.7-0.1,1c0,0.2,0,0.3,0.1,0.5c0,0.1,0.1,0.2,0.2,0.3c0.2,0.1,0.5,0.1,0.7,0.1h4.1V37
		c0,0.3,0.1,0.5,0.3,0.7c0.2,0.2,0.8,0.3,1.6,0.3C69.4,38,70,37.9,70.2,37.7L70.2,37.7z"/>
	<path class="st1" d="M2.6,12.2h13c1.3,0,2.2,0.4,2.6,2.2c0.4,2,0.3,3.4-2,3.6l-4.1,0.3c3,18.9,20.5,25.1,30.1,4.7
		c1.6-3.4,2.1-4,3.8-3.6c2.3,0.6,2.7,1.8,1.5,5.2c-8.2,25.2-36,27.7-41.4-5.9l-3.3,0.2C0.1,19.1,0,16.8,0,15.6
		C0,13.1,0.9,12.2,2.6,12.2z"/>
	<circle class="st1" cx="49.8" cy="4.8" r="4.8"/>
</g>
<g id="Layer_5_4_">
	<line class="st5" x1="522.6" y1="20.4" x2="500" y2="20.4"/>
</g>
<path id="line1_3_" vector-effect="non-scaling-stroke" class="st3" d="M97.6,21.9"/>
<path id="line1_1_" vector-effect="non-scaling-stroke" class="st3" d="M541.6,21.9"/>
<path id="line2_3_" vector-effect="non-scaling-stroke" class="st4" d="M666.6,21.9"/>
<path id="line2_1_" vector-effect="non-scaling-stroke" class="st4" d="M1102.5,21.9"/>
<g id="Layer_5_3_">
	<line class="st5" x1="522.6" y1="20.4" x2="500" y2="20.4"/>
</g>
<g>
	<path class="st6" d="M1096.2,32.1c0.1,0,0.1-0.2,0.2-0.2c0.4-0.9,0.9-1.8,1.3-2.7c0.1-0.1,0.1-0.2,0.3-0.2c5.3,0,10.7,0,16,0
		c0,0,0.1,0,0.1,0c0,0.1,0,0.2-0.1,0.2c-0.5,1-1,1.9-1.4,2.9c-0.1,0.2-0.2,0.2-0.4,0.2c-5.2,0-10.5,0-15.7,0c-0.1,0-0.2,0-0.3,0
		C1096.2,32.3,1096.2,32.2,1096.2,32.1z"/>
	<path class="st2" d="M1169.6,15.6c0.3-0.3,0.5-0.6,0.8-0.8c0.7-0.5,1.6-0.8,2.5-0.8c0.9-0.1,1.8-0.1,2.6,0.2
		c0.8,0.2,1.5,0.7,1.9,1.4c0.2-0.2,0.4-0.4,0.6-0.6c0.7-0.6,1.6-0.9,2.5-1c1.1-0.1,2.1-0.1,3.1,0.3c1.4,0.5,2.1,1.5,2.1,2.9
		c0,2.4,0,4.7,0,7.1c0,0.2,0,0.2-0.2,0.2c-1.3,0-2.5,0-3.8,0c-0.2,0-0.2-0.1-0.2-0.2c0-1.8,0-3.6,0-5.3c0-0.4,0-0.8-0.1-1.1
		c-0.2-0.8-0.6-1.2-1.5-1.3c-0.4,0-0.8,0-1.1,0.1c-0.8,0.2-1.1,0.8-1.3,1.5c-0.1,0.4-0.1,0.7-0.1,1.1c0,1.7,0,3.4,0,5.1
		c0,0.2-0.1,0.3-0.3,0.3c-1.1,0-2.2,0-3.4,0c-0.2,0-0.3-0.1-0.3-0.3c0-2,0-4,0-6c0-0.2,0-0.4-0.1-0.7c-0.2-0.7-0.7-1.1-1.4-1.1
		c-0.4,0-0.8,0-1.2,0.1c-0.7,0.2-1.1,0.7-1.3,1.5c-0.1,0.4-0.1,0.7-0.1,1.1c0,1.7,0,3.4,0,5.1c0,0.2-0.1,0.3-0.3,0.3
		c-1.3,0-2.5,0-3.8,0c-0.2,0-0.2-0.1-0.2-0.3c0-3.3,0-6.5,0-9.8c0-0.2,0.1-0.3,0.3-0.3c1.2,0,2.5,0,3.7,0c0.2,0,0.3,0,0.2,0.2
		C1169.6,14.8,1169.6,15.1,1169.6,15.6z"/>
	<path class="st6" d="M1135.2,29c0.2,0,0.5,0,0.7,0.1c0.4,0.1,0.6,0.4,0.4,0.9c0,0.1-0.1,0.3-0.2,0.4c-1.1,2.2-2.2,4.3-3.2,6.6
		c-0.5,1-1.3,1.4-2.3,1.5c-4.2,0-8.4,0-12.7,0c-0.2,0-0.2-0.1-0.1-0.2c0.5-1,1-1.9,1.4-2.9c0.1-0.2,0.2-0.2,0.4-0.2
		c3.5,0,6.9,0,10.4,0c0.2,0,0.3-0.1,0.4-0.3c0.4-0.7,0.7-1.4,1.1-2.2c0.2-0.3,0.2-0.3-0.2-0.3c-3.4,0-6.8,0-10.2,0c-1,0-2.1,0-3.1,0
		c-0.3,0-0.3,0-0.2-0.3c0.5-1,1-1.9,1.4-2.9c0.1-0.2,0.2-0.2,0.4-0.2c2.4,0,4.8,0,7.2,0c0.2,0,0.4,0,0.5,0
		C1127.5,29,1132.7,29,1135.2,29z"/>
	<path class="st2" d="M1158.9,20.1c-1.3,0-2.7,0-4,0c-0.2,0-0.3,0.1-0.2,0.3c0,0.2,0,0.4,0.1,0.6c0.2,0.8,0.8,1.3,1.7,1.4
		c0.6,0.1,1.2,0,1.7-0.2c0.4-0.1,0.7-0.4,0.8-0.8c0.1-0.1,0.1-0.2,0.2-0.2c1.2,0,2.4,0,3.6,0c0.2,0,0.2,0.1,0.1,0.2
		c-0.5,1.3-1.4,2.1-2.6,2.7c-1.1,0.5-2.4,0.7-3.6,0.7c-1.1,0-2.1-0.2-3.1-0.6c-1.8-0.8-2.8-2.1-3-4.1c-0.2-1.5,0.1-2.9,1-4.1
		c0.8-1,1.9-1.6,3.1-1.9c1.7-0.4,3.4-0.4,5.1,0.2c1.9,0.7,3.1,2.1,3.4,4.2c0.1,0.5,0.1,0.9,0.1,1.4c0,0.2-0.1,0.3-0.3,0.3
		C1161.5,20.1,1160.2,20.1,1158.9,20.1z M1156.8,18.2c0.7,0,1.4,0,2.1,0c0.2,0,0.3-0.1,0.2-0.2c0-0.1,0-0.1,0-0.2
		c-0.2-1-0.7-1.5-1.8-1.7c-1.5-0.2-2.6,0.4-2.9,1.9c0,0.2,0,0.2,0.2,0.2C1155.4,18.2,1156.1,18.2,1156.8,18.2z"/>
	<path class="st2" d="M1153,36.8c-0.6,0.6-1.3,1.1-2.1,1.3c-1.5,0.4-3,0.4-4.5-0.3c-1-0.5-1.4-1.4-1.5-2.4c-0.1-2.5,0-4.9,0-7.4
		c0-0.1,0-0.2,0.2-0.2c1.3,0,2.5,0,3.8,0c0.2,0,0.2,0.1,0.2,0.2c0,1.8,0,3.6,0,5.5c0,0.4,0,0.8,0.1,1.2c0.1,0.7,0.5,1,1.2,1.1
		c0.4,0.1,0.8,0.1,1.3-0.1c0.7-0.2,1.1-0.7,1.2-1.5c0.1-0.4,0.1-0.7,0.1-1.1c0-1.7,0-3.4,0-5.1c0-0.2,0-0.3,0.3-0.3
		c1.2,0,2.4,0,3.6,0c0.2,0,0.2,0,0.2,0.2c0,3.3,0,6.6,0,9.8c0,0.2,0,0.3-0.2,0.3c-1.2,0-2.4,0-3.6,0c-0.2,0-0.2,0-0.2-0.2
		C1153,37.6,1153,37.2,1153,36.8z"/>
	<path class="st2" d="M1128.8,21.3c0.6,0,1.3,0,1.9,0c0.1,0,0.2,0,0.2,0.1c0.1,0.7,0.7,1,1.3,1.2c0.7,0.1,1.4,0.1,2.1-0.1
		c0.2-0.1,0.4-0.2,0.6-0.3c0.4-0.4,0.3-0.9-0.2-1.1c-0.4-0.2-0.8-0.3-1.2-0.4c-1.5-0.3-2.9-0.6-4.3-1.2c-0.6-0.2-1.1-0.5-1.5-0.9
		c-0.7-0.8-0.7-2.1-0.1-3c0.5-0.7,1.1-1.1,1.9-1.4c1.3-0.5,2.7-0.5,4.1-0.5c1.2,0,2.3,0.2,3.4,0.7c0.9,0.4,1.6,1.1,1.8,2.1
		c0,0.2,0,0.2-0.2,0.2c-1.2,0-2.4,0-3.6,0c-0.1,0-0.2,0-0.2-0.1c-0.2-0.5-0.6-0.8-1.1-0.9c-0.6-0.1-1.2-0.1-1.7,0.1
		c-0.3,0.1-0.5,0.2-0.6,0.5c-0.1,0.4,0,0.7,0.4,0.9c0.5,0.2,1,0.3,1.5,0.4c1.3,0.3,2.7,0.6,4,1c0.7,0.2,1.4,0.6,1.7,1.3
		c0.6,1.1,0.3,2.5-0.7,3.3c-0.8,0.7-1.8,1-2.8,1.2c-1.2,0.2-2.5,0.3-3.7,0.2c-1.3-0.1-2.5-0.4-3.6-1.1c-0.7-0.5-1.3-1.1-1.5-2
		c-0.1-0.4-0.1-0.4,0.3-0.4C1127.6,21.3,1128.2,21.3,1128.8,21.3z"/>
	<path class="st2" d="M1110.5,16.8c-0.4,0-0.8,0-1.2,0c-0.8,0-1.7,0-2.5,0c-0.1,0-0.2,0.1-0.2-0.1c-0.2-0.5-0.6-0.8-1.1-0.9
		c-0.6-0.1-1.2-0.1-1.8,0.1c-0.4,0.2-0.6,0.5-0.5,0.9c0.1,0.3,0.3,0.4,0.5,0.5c0.6,0.3,1.2,0.3,1.8,0.5c1.2,0.3,2.5,0.5,3.7,1
		c0.8,0.3,1.4,0.9,1.6,1.8c0.3,1.1-0.2,2.3-1.2,3c-0.8,0.6-1.8,0.9-2.8,1c-1.1,0.2-2.1,0.2-3.2,0.1c-1.2-0.1-2.4-0.3-3.5-1
		c-0.8-0.5-1.3-1.2-1.5-2.2c0-0.2,0-0.2,0.2-0.2c1.2,0,2.4,0,3.7,0c0.1,0,0.2,0,0.2,0.1c0.1,0.7,0.6,1,1.3,1.2
		c0.7,0.1,1.3,0.1,2-0.1c0.3-0.1,0.6-0.2,0.7-0.5c0.2-0.4,0-0.7-0.4-0.9c-0.4-0.2-0.9-0.3-1.3-0.4c-1.5-0.3-2.9-0.6-4.3-1.3
		c-0.5-0.2-1-0.6-1.3-1.1c-0.5-0.8-0.4-2.2,0.3-3c0.7-0.8,1.6-1.1,2.5-1.4c1.2-0.3,2.5-0.3,3.8-0.2c0.9,0.1,1.8,0.2,2.7,0.7
		C1109.7,15,1110.4,15.7,1110.5,16.8z"/>
	<path class="st2" d="M1189.8,21.3c0.6,0,1.2,0,1.9,0c0.1,0,0.2,0,0.2,0.1c0.1,0.7,0.6,1,1.3,1.2c0.7,0.1,1.3,0.1,2-0.1
		c0.2-0.1,0.4-0.1,0.5-0.3c0.4-0.4,0.4-0.9-0.2-1.2c-0.3-0.2-0.7-0.2-1.1-0.3c-1.4-0.3-2.8-0.6-4.2-1.2c-0.5-0.2-1.1-0.5-1.5-1
		c-0.7-0.8-0.7-2.1-0.1-3c0.6-0.8,1.4-1.2,2.3-1.5c1.3-0.4,2.6-0.4,4-0.3c1,0.1,2,0.2,2.9,0.7c0.9,0.4,1.5,1.1,1.7,2.1
		c0,0.2,0,0.2-0.2,0.2c-1.2,0-2.4,0-3.6,0c-0.1,0-0.2,0-0.2-0.1c-0.2-0.5-0.6-0.8-1.1-0.9c-0.5-0.1-1-0.1-1.5,0
		c-0.1,0-0.2,0.1-0.3,0.1c-0.3,0.1-0.4,0.4-0.4,0.7c0,0.3,0.2,0.5,0.4,0.6c0.5,0.2,0.9,0.3,1.4,0.4c1.3,0.3,2.6,0.6,3.9,1
		c0.9,0.3,1.6,0.8,1.8,1.7c0.4,1.2-0.1,2.5-1.2,3.2c-0.8,0.6-1.8,0.9-2.7,1c-1.1,0.2-2.2,0.2-3.2,0.1c-1.2-0.1-2.4-0.4-3.5-1
		c-0.8-0.5-1.3-1.3-1.5-2.2c0-0.1,0-0.2,0.2-0.2C1188.5,21.3,1189.2,21.3,1189.8,21.3z"/>
	<path class="st2" d="M1161.9,35c0.6,0,1.2,0,1.9,0c0.1,0,0.2,0,0.2,0.2c0.1,0.7,0.6,1,1.3,1.1c0.6,0.1,1.3,0.1,1.9,0
		c0.2-0.1,0.4-0.2,0.6-0.3c0.4-0.4,0.4-0.9-0.1-1.2c-0.5-0.2-1-0.3-1.5-0.4c-1.4-0.3-2.9-0.6-4.2-1.3c-0.6-0.3-1.1-0.6-1.4-1.3
		c-0.5-1-0.2-2.3,0.7-3c0.7-0.7,1.6-1,2.5-1.1c1.8-0.3,3.5-0.3,5.3,0.2c0.9,0.2,1.7,0.7,2.2,1.5c0.2,0.3,0.3,0.6,0.4,1
		c0,0.1,0,0.2-0.1,0.2c-1.2,0-2.4,0-3.6,0c-0.1,0-0.2,0-0.2-0.1c-0.2-0.5-0.6-0.8-1.1-0.9c-0.5-0.1-1.1-0.1-1.6,0.1
		c-0.3,0.1-0.5,0.2-0.6,0.5c-0.1,0.4,0,0.7,0.4,0.9c0.4,0.2,0.9,0.3,1.3,0.4c1.3,0.3,2.6,0.6,3.9,1c0.9,0.3,1.6,0.8,1.9,1.7
		c0.4,1.2,0,2.4-1.2,3.3c-0.8,0.6-1.7,0.8-2.6,1c-1.2,0.2-2.4,0.2-3.5,0.1c-1.2-0.1-2.3-0.4-3.3-1c-0.8-0.5-1.3-1.2-1.5-2.2
		c0-0.2,0-0.2,0.2-0.2C1160.6,35,1161.3,35,1161.9,35z"/>
	<path class="st2" d="M1146.6,9.9c0,1.3,0,2.6,0,3.9c0,0.2,0.1,0.3,0.3,0.3c0.7,0,1.4,0,2.1,0c0.2,0,0.2,0,0.2,0.2
		c0,0.5,0,1.1,0,1.6c0,0.2,0,0.3-0.2,0.3c-0.7,0-1.4,0-2.1,0c-0.2,0-0.2,0.1-0.2,0.2c0,1.6,0,3.2,0,4.7c0,0.8,0.3,1.1,1.1,1.2
		c0.3,0,0.5,0,0.8,0c0.1,0,0.2,0,0.2,0.2c0,0.6,0,1.2,0,1.8c0,0.1,0,0.2-0.1,0.2c-1,0.2-2,0.2-3,0.2c-0.5,0-1-0.1-1.4-0.3
		c-0.9-0.4-1.3-1.1-1.4-1.9c-0.1-0.6-0.2-1.2-0.2-1.8c0-1.4,0-2.8,0-4.2c0-0.2-0.1-0.3-0.3-0.3c-0.8,0-1.6,0-2.4,0
		c-0.2,0-0.2-0.1-0.2-0.3c0-0.5,0-1.1,0-1.6c0-0.2,0-0.2,0.2-0.2c0.9,0,1.7,0,2.6,0c0.2,0,0.2,0,0.2-0.2c0-0.7,0-1.5,0-2.2
		c0-0.1,0-0.2,0.1-0.3C1143.9,10.9,1145.2,10.4,1146.6,9.9z"/>
	<path class="st2" d="M1141.6,31.2c0,2.2,0,4.5,0,6.7c0,0.2-0.1,0.3-0.3,0.3c-1.2,0-2.4,0-3.6,0c-0.2,0-0.2,0-0.2-0.2
		c0-4.5,0-9,0-13.5c0-0.2,0-0.2,0.2-0.2c1.2,0,2.4,0,3.6,0c0.2,0,0.3,0.1,0.3,0.3C1141.6,26.7,1141.6,28.9,1141.6,31.2z"/>
	<path class="st6" d="M1116.8,33c-0.4,0.8-0.8,1.6-1.2,2.4c-1.9,3.9-3.8,7.7-5.8,11.6c-0.1,0.2-0.2,0.3-0.4,0.3c-1.1,0-2.2,0-3.3,0
		c-0.2,0-0.3,0-0.2-0.2c2.3-4.6,4.6-9.2,6.9-13.9c0.1-0.1,0.1-0.2,0.3-0.2C1114.3,33,1115.5,33,1116.8,33z"/>
	<path class="st6" d="M1119.2,20.5c0.1,0,2.2-4.2,3.1-6.2c0.1-0.2,0.2-0.2,0.4-0.2c1.1,0,2.3,0,3.4,0c0,0.1-0.1,0.2-0.1,0.3
		c-2.3,4.6-4.6,9.2-6.9,13.8c-0.1,0.2-0.2,0.2-0.4,0.2c-1.1,0-2.2,0-3.3,0c0-0.1,0.1-0.2,0.1-0.3c0.6-1.1,1.8-3.6,1.8-3.7
		c0.2-0.3,0.3-0.7,0.5-1C1118.3,22.4,1118.7,21.5,1119.2,20.5z"/>
	<path class="st2" d="M1119.2,20.5c-0.5,0.9-0.9,1.9-1.4,2.8c-0.2,0.3-0.3,0.7-0.5,1c-0.4-0.5-0.7-1.1-1-1.7
		c-1.6-2.8-3.1-5.6-4.7-8.4c0-0.1-0.1-0.1-0.1-0.2c0.1,0,0.2,0,0.3,0c1.2,0,2.4,0,3.6,0c0.2,0,0.3,0.1,0.4,0.2
		C1116.9,16.4,1118.1,18.5,1119.2,20.5z"/>
	<path class="st6" d="M1113.3,32.4c0.3-0.6,0.6-1.2,0.9-1.7c0.2-0.5,0.5-1,0.7-1.5c0-0.1,0.1-0.2,0.2-0.2c1.2,0,2.4,0,3.7,0
		c0,0.1-0.1,0.2-0.1,0.3c-0.5,1-1,1.9-1.4,2.9c-0.1,0.2-0.2,0.2-0.4,0.2C1115.7,32.4,1114.5,32.4,1113.3,32.4z"/>
</g>
</svg>
