<?xml version="1.0" encoding="utf-8"?>
<!-- Generator: Adobe Illustrator 22.0.1, SVG Export Plug-In . SVG Version: 6.00 Build 0)  -->
<svg version="1.1" id="Layer_1" xmlns="http://www.w3.org/2000/svg" xmlns:xlink="http://www.w3.org/1999/xlink" x="0px" y="0px"
	 viewBox="0 0 500 47.6" style="enable-background:new 0 0 500 47.6;" xml:space="preserve">
<style type="text/css">
	.st0{enable-background:new    ;}
	.st1{fill:#D40E14;}
	.st2{fill:#003976;}
	.st3{fill:none;stroke:#D40E14;stroke-width:3;stroke-miterlimit:10;}
	.st4{fill:none;stroke:#003976;stroke-width:3;stroke-miterlimit:10;}
	.st5{fill:none;}
	.st6{fill:#DE2652;}
</style>
<g class="st0">
	<path class="st1" d="M188.6,33.9V20.7c0-0.2,0-0.3,0.1-0.4c0-0.1,0.1-0.2,0.2-0.2c0.2-0.2,0.7-0.2,1.4-0.2c0.7,0,1.2,0.1,1.4,0.2
		c0.1,0.1,0.1,0.1,0.2,0.2c0,0.1,0.1,0.2,0.1,0.4v13.2c0,0.2,0,0.3-0.1,0.4c0,0.1-0.1,0.2-0.2,0.2c-0.2,0.2-0.7,0.2-1.4,0.2
		c-0.7,0-1.2-0.1-1.4-0.2C188.7,34.4,188.6,34.1,188.6,33.9z"/>
	<path class="st1" d="M194.4,20.5c0-0.2,0.1-0.3,0.2-0.5c0.1-0.1,0.3-0.1,0.6-0.2c0.3,0,0.6-0.1,1-0.1c0.4,0,0.8,0,1.1,0.1
		c0.3,0.1,0.5,0.2,0.7,0.5l5.2,8.7v-8.4c0-0.2,0-0.3,0.1-0.4c0-0.1,0.1-0.2,0.2-0.2c0.1-0.1,0.3-0.1,0.5-0.2c0.2,0,0.5-0.1,0.9-0.1
		c0.4,0,0.7,0,0.9,0.1c0.2,0,0.4,0.1,0.5,0.2c0.2,0.1,0.2,0.3,0.2,0.6v13.2c0,0.2,0,0.3-0.1,0.4c0,0.1-0.1,0.2-0.2,0.2
		c-0.1,0.1-0.3,0.1-0.5,0.2c-0.2,0-0.5,0.1-0.9,0.1c-0.4,0-0.7,0-0.9-0.1s-0.4-0.1-0.5-0.2c-0.1-0.1-0.2-0.2-0.2-0.3l-4.9-8.2v8
		c0,0.2,0,0.3-0.1,0.4c0,0.1-0.1,0.2-0.2,0.2c-0.1,0.1-0.3,0.1-0.5,0.2c-0.2,0-0.5,0.1-0.9,0.1c-0.4,0-0.7,0-0.9-0.1
		c-0.2,0-0.4-0.1-0.5-0.2c-0.2-0.1-0.2-0.4-0.2-0.6v-12l-0.3-0.6C194.5,20.9,194.4,20.6,194.4,20.5z"/>
	<path class="st1" d="M208.9,20.5c0-0.2,0.1-0.3,0.2-0.5c0.1-0.1,0.3-0.1,0.6-0.2c0.3,0,0.6-0.1,1-0.1c0.4,0,0.8,0,1.1,0.1
		c0.3,0.1,0.5,0.2,0.7,0.5l5.2,8.7v-8.4c0-0.2,0-0.3,0.1-0.4c0-0.1,0.1-0.2,0.2-0.2c0.1-0.1,0.3-0.1,0.5-0.2c0.2,0,0.5-0.1,0.9-0.1
		c0.4,0,0.7,0,0.9,0.1c0.2,0,0.4,0.1,0.5,0.2c0.2,0.1,0.2,0.3,0.2,0.6v13.2c0,0.2,0,0.3-0.1,0.4c0,0.1-0.1,0.2-0.2,0.2
		c-0.1,0.1-0.3,0.1-0.5,0.2c-0.2,0-0.5,0.1-0.9,0.1c-0.4,0-0.7,0-0.9-0.1s-0.4-0.1-0.5-0.2c-0.1-0.1-0.2-0.2-0.2-0.3l-4.9-8.2v8
		c0,0.2,0,0.3-0.1,0.4c0,0.1-0.1,0.2-0.2,0.2c-0.1,0.1-0.3,0.1-0.5,0.2c-0.2,0-0.5,0.1-0.9,0.1c-0.4,0-0.7,0-0.9-0.1
		c-0.2,0-0.4-0.1-0.5-0.2c-0.2-0.1-0.2-0.4-0.2-0.6v-12l-0.3-0.6C209,20.9,208.9,20.6,208.9,20.5z"/>
	<path class="st1" d="M223.3,27.3c0-1.2,0.2-2.3,0.5-3.2s0.8-1.8,1.4-2.4c0.6-0.7,1.3-1.2,2.2-1.5c0.8-0.4,1.8-0.5,2.9-0.5
		c1.1,0,2,0.2,2.8,0.5c0.8,0.4,1.6,0.9,2.1,1.5c0.6,0.7,1,1.5,1.4,2.4c0.3,1,0.5,2,0.5,3.2c0,1.2-0.2,2.2-0.5,3.2
		c-0.3,0.9-0.8,1.8-1.4,2.4c-0.6,0.7-1.3,1.2-2.1,1.5s-1.8,0.5-2.8,0.5c-1.1,0-2-0.2-2.8-0.5s-1.6-0.9-2.2-1.5
		c-0.6-0.7-1-1.5-1.4-2.4S223.3,28.5,223.3,27.3z M226.7,27.3c0,0.9,0.1,1.6,0.2,2.2c0.2,0.6,0.4,1.1,0.7,1.5s0.7,0.7,1.1,0.9
		s0.9,0.3,1.4,0.3c0.8,0,1.5-0.2,2-0.7c0.5-0.4,0.9-1.1,1.1-1.8c0.2-0.8,0.3-1.6,0.3-2.4s-0.1-1.6-0.2-2.2c-0.2-0.6-0.4-1.1-0.7-1.6
		s-0.7-0.7-1.1-0.9s-0.9-0.3-1.4-0.3c-0.5,0-1,0.1-1.4,0.3s-0.8,0.5-1.1,0.9s-0.5,0.9-0.7,1.6C226.8,25.7,226.7,26.4,226.7,27.3z"/>
	<path class="st1" d="M237.9,20.4c0-0.1,0-0.2,0.1-0.2c0-0.1,0.1-0.1,0.1-0.1c0.1-0.1,0.3-0.1,0.5-0.2s0.5-0.1,0.9-0.1
		c0.4,0,0.7,0,0.9,0.1c0.2,0,0.4,0.1,0.5,0.2c0.1,0.1,0.2,0.3,0.4,0.7l3.2,9l3.1-9c0.1-0.1,0.1-0.3,0.2-0.4c0.1-0.1,0.1-0.2,0.2-0.3
		c0.1-0.1,0.3-0.1,0.5-0.2s0.5-0.1,0.9-0.1c0.4,0,0.7,0,0.9,0.1c0.2,0,0.4,0.1,0.5,0.2c0.1,0.1,0.2,0.2,0.2,0.4
		c0,0.2-0.1,0.4-0.2,0.7L246.1,34c-0.1,0.2-0.1,0.3-0.2,0.3c-0.1,0.1-0.1,0.1-0.2,0.2c-0.1,0.1-0.3,0.1-0.5,0.2
		c-0.2,0-0.5,0.1-0.9,0.1c-0.4,0-0.7,0-0.9-0.1c-0.2,0-0.4-0.1-0.5-0.2c-0.1,0-0.1-0.1-0.2-0.2s-0.1-0.2-0.2-0.3l-4.7-12.9
		C238,20.8,237.9,20.6,237.9,20.4z"/>
</g>
<g class="st0">
	<path class="st2" d="M251.1,34.1c0-0.1,0-0.4,0.2-0.7l4.6-12.9c0.1-0.2,0.1-0.3,0.2-0.3s0.1-0.1,0.1-0.2c0.1-0.1,0.3-0.1,0.5-0.2
		s0.6-0.1,1-0.1c0.5,0,0.8,0,1,0.1c0.2,0,0.4,0.1,0.5,0.2c0.1,0.1,0.2,0.3,0.3,0.5l4.6,12.9c0.1,0.3,0.2,0.6,0.2,0.7
		c0,0.1,0,0.2-0.1,0.2s-0.1,0.1-0.1,0.1c-0.1,0.1-0.3,0.1-0.5,0.2c-0.2,0-0.5,0.1-0.9,0.1c-0.4,0-0.7,0-0.9-0.1
		c-0.2,0-0.4-0.1-0.5-0.2c-0.1-0.1-0.1-0.2-0.2-0.3c-0.1-0.1-0.1-0.3-0.2-0.4l-0.7-2.3h-5l-0.7,2.3c0,0.1-0.1,0.3-0.2,0.4
		c-0.1,0.1-0.1,0.2-0.2,0.3c-0.1,0.1-0.3,0.1-0.5,0.2c-0.2,0-0.5,0.1-0.9,0.1c-0.4,0-0.7,0-0.9-0.1c-0.2,0-0.4-0.1-0.5-0.2
		C251.2,34.4,251.1,34.3,251.1,34.1z M255.9,29h3.3l-1.7-5.1L255.9,29z"/>
	<path class="st2" d="M264.2,21.9c0-0.3,0-0.6,0.1-0.9c0.1-0.3,0.1-0.5,0.2-0.7c0.1-0.2,0.2-0.3,0.4-0.3c0.2,0,0.3-0.1,0.6-0.1h10.2
		c0.2,0,0.3,0,0.4,0c0.1,0,0.2,0,0.2,0.1c0.1,0.1,0.1,0.1,0.2,0.2c0,0.1,0,0.2,0,0.4c0,0.2,0,0.5-0.1,0.8s-0.1,0.6-0.2,0.8
		c-0.1,0.2-0.2,0.3-0.4,0.3s-0.3,0.1-0.6,0.1h-3.3v11.2c0,0.2,0,0.3-0.1,0.4s-0.1,0.2-0.2,0.2c-0.2,0.2-0.7,0.2-1.4,0.2
		c-0.7,0-1.2-0.1-1.4-0.2c-0.2-0.1-0.2-0.3-0.2-0.6V22.6h-3.7c-0.3,0-0.5,0-0.7-0.1c-0.1-0.1-0.2-0.1-0.2-0.2
		C264.3,22.2,264.2,22.1,264.2,21.9z"/>
	<path class="st2" d="M278.2,33.9V20.7c0-0.2,0-0.3,0.1-0.4c0-0.1,0.1-0.2,0.2-0.2c0.2-0.2,0.7-0.2,1.4-0.2c0.7,0,1.2,0.1,1.4,0.2
		c0.1,0.1,0.1,0.1,0.2,0.2c0,0.1,0.1,0.2,0.1,0.4v13.2c0,0.2,0,0.3-0.1,0.4c0,0.1-0.1,0.2-0.2,0.2c-0.2,0.2-0.7,0.2-1.4,0.2
		c-0.7,0-1.2-0.1-1.4-0.2C278.3,34.4,278.2,34.1,278.2,33.9z"/>
	<path class="st2" d="M283.2,20.4c0-0.1,0-0.2,0.1-0.2c0-0.1,0.1-0.1,0.1-0.1c0.1-0.1,0.3-0.1,0.5-0.2c0.2,0,0.5-0.1,0.9-0.1
		c0.4,0,0.7,0,0.9,0.1s0.4,0.1,0.5,0.2c0.1,0.1,0.2,0.3,0.4,0.7l3.2,9l3.1-9c0-0.1,0.1-0.3,0.2-0.4c0.1-0.1,0.1-0.2,0.2-0.3
		c0.1-0.1,0.3-0.1,0.5-0.2c0.2,0,0.5-0.1,0.9-0.1c0.4,0,0.7,0,0.9,0.1s0.4,0.1,0.5,0.2c0.1,0.1,0.2,0.2,0.2,0.4
		c0,0.2-0.1,0.4-0.2,0.7L291.4,34c-0.1,0.2-0.1,0.3-0.2,0.3s-0.1,0.1-0.2,0.2c-0.1,0.1-0.3,0.1-0.5,0.2c-0.2,0-0.5,0.1-0.9,0.1
		c-0.4,0-0.7,0-0.9-0.1c-0.2,0-0.4-0.1-0.5-0.2c-0.1,0-0.1-0.1-0.2-0.2c0-0.1-0.1-0.2-0.2-0.3l-4.7-12.9
		C283.3,20.8,283.2,20.6,283.2,20.4z"/>
	<path class="st2" d="M297.9,33.7V20.8c0-0.2,0-0.3,0.1-0.5c0.1-0.1,0.1-0.2,0.2-0.3c0.1-0.1,0.2-0.1,0.4-0.2c0.2,0,0.5-0.1,0.8-0.1
		h7.6c0.2,0,0.3,0,0.4,0c0.1,0,0.2,0,0.2,0.1c0.1,0.1,0.1,0.1,0.2,0.2c0,0.1,0,0.2,0,0.4c0,0.2,0,0.5-0.1,0.8s-0.1,0.6-0.2,0.8
		c-0.1,0.2-0.2,0.3-0.4,0.3c-0.2,0-0.3,0.1-0.6,0.1h-5.4v2.9h4.8c0.2,0,0.3,0,0.4,0c0.1,0,0.2,0,0.2,0.1c0.1,0.1,0.1,0.1,0.2,0.2
		c0,0.1,0,0.2,0,0.4c0,0.2,0,0.5-0.1,0.8s-0.1,0.6-0.2,0.8c-0.1,0.2-0.2,0.3-0.4,0.3s-0.3,0.1-0.6,0.1h-4.5v3.7h5.9
		c0.2,0,0.3,0,0.4,0c0.1,0,0.2,0,0.2,0.1c0.1,0.1,0.1,0.1,0.2,0.2s0,0.2,0,0.4c0,0.2,0,0.5-0.1,0.8c-0.1,0.4-0.1,0.6-0.2,0.8
		c-0.1,0.2-0.2,0.3-0.4,0.3c-0.1,0-0.3,0.1-0.6,0.1h-7.3c-0.4,0-0.6,0-0.8-0.1c-0.2,0-0.3-0.1-0.4-0.2c-0.1-0.1-0.1-0.2-0.2-0.3
		C298,34,297.9,33.9,297.9,33.7z"/>
	<path class="st2" d="M308.7,33.1c0-0.2,0-0.4,0.1-0.6c0.1-0.2,0.2-0.4,0.3-0.5c0.4-0.6,0.7-0.8,0.9-0.8c0.2,0,0.6,0.2,1.3,0.5
		c0.3,0.2,0.7,0.3,1.2,0.4c0.5,0.1,1.1,0.2,1.7,0.2c0.6,0,1.1-0.1,1.4-0.2c0.4-0.1,0.7-0.3,0.8-0.6c0.2-0.3,0.2-0.6,0.2-0.9
		c0-0.5-0.3-0.9-0.9-1.3c-0.6-0.3-1.5-0.6-2.6-0.9c-0.6-0.2-1.1-0.3-1.7-0.6c-0.5-0.2-1-0.5-1.4-0.8s-0.7-0.7-0.9-1.2
		s-0.3-1-0.3-1.7c0-0.7,0.1-1.3,0.4-1.9c0.3-0.6,0.6-1,1.1-1.4c0.5-0.4,1-0.7,1.7-0.9c0.7-0.2,1.4-0.3,2.2-0.3
		c0.8,0,1.4,0.1,1.9,0.2c0.5,0.1,1,0.2,1.4,0.4c0.5,0.2,0.9,0.4,1.1,0.6c0.3,0.2,0.4,0.4,0.4,0.6c0,0.2,0,0.4-0.1,0.6
		c-0.1,0.2-0.2,0.4-0.3,0.6c-0.1,0.2-0.2,0.4-0.4,0.5c-0.1,0.1-0.3,0.2-0.5,0.2c-0.2,0-0.5,0-0.7-0.1c-0.2-0.1-0.4-0.2-0.6-0.3
		c-0.2-0.1-0.5-0.2-0.9-0.3c-0.4-0.1-0.9-0.1-1.5-0.1c-0.5,0-0.9,0.1-1.3,0.3c-0.3,0.2-0.6,0.4-0.7,0.6c-0.1,0.2-0.2,0.5-0.2,0.7
		c0,0.4,0.2,0.6,0.5,0.9s0.7,0.4,1.2,0.6c0.5,0.1,0.9,0.3,1.4,0.4c0.6,0.2,1.2,0.3,1.6,0.5c0.5,0.2,0.9,0.4,1.3,0.7
		c0.4,0.3,0.8,0.6,1.1,1c0.3,0.4,0.5,0.8,0.6,1.2c0.1,0.4,0.2,0.8,0.2,1.3c0,0.8-0.1,1.5-0.4,2c-0.3,0.6-0.7,1.1-1.2,1.5
		c-0.5,0.4-1.1,0.7-1.8,0.9s-1.4,0.3-2.3,0.3c-0.8,0-1.6-0.1-2.3-0.2c-0.7-0.1-1.2-0.3-1.6-0.5c-0.4-0.2-0.7-0.3-0.9-0.4
		c-0.3-0.1-0.5-0.3-0.6-0.4C308.8,33.4,308.7,33.2,308.7,33.1z"/>
</g>
<line id="line1_4_" vector-effect="non-scaling-stroke" class="st3" x1="190.7" y1="21.9" x2="98.7" y2="21.9"/>
<line id="line2_4_" vector-effect="non-scaling-stroke" class="st4" x1="400.6" y1="21.9" x2="317.7" y2="21.9"/>
<g>
	<title>Artboard 1</title>
	<path class="st1" d="M100.5,37.7c0.1-0.1,0.2-0.2,0.2-0.3c0.1-0.1,0.1-0.3,0.1-0.5V22.2c0-0.2,0-0.3-0.1-0.5c0-0.1-0.1-0.2-0.2-0.3
		c-0.2-0.2-0.7-0.3-1.6-0.3s-1.3,0.1-1.6,0.3c-0.1,0.1-0.2,0.2-0.2,0.3c0,0.1-0.1,0.3-0.1,0.5V37c0,0.3,0.1,0.5,0.3,0.7
		c0.2,0.2,0.8,0.3,1.6,0.3C99.8,38,100.3,37.9,100.5,37.7z M89.5,37.8c0.8-0.3,1.5-0.7,2.1-1.2c0.5-0.5,1-1.1,1.2-1.8
		c0.3-0.7,0.4-1.5,0.4-2.3V22.2c0-0.3-0.1-0.5-0.3-0.7c-0.2-0.2-0.8-0.3-1.6-0.3s-1.3,0.1-1.6,0.3c-0.1,0.1-0.2,0.2-0.2,0.3
		c-0.1,0.1-0.1,0.3-0.1,0.5v10.3c0,0.4-0.1,0.8-0.2,1.2c-0.2,0.5-0.5,0.8-0.9,1.1c-0.6,0.3-1.2,0.4-1.9,0.4c-0.5,0-0.9-0.1-1.4-0.2
		c-0.4-0.1-0.7-0.3-0.9-0.6c-0.2-0.2-0.4-0.5-0.5-0.9c-0.1-0.4-0.2-0.7-0.2-1.1V22.2c0-0.3-0.1-0.5-0.3-0.7
		c-0.2-0.2-0.8-0.3-1.6-0.3s-1.3,0.1-1.6,0.3c-0.1,0.1-0.2,0.2-0.2,0.3c0,0.2-0.1,0.3-0.1,0.5v10.3c0,0.8,0.1,1.6,0.4,2.3
		c0.2,0.7,0.7,1.3,1.2,1.8c0.6,0.5,1.3,1,2.1,1.2C85.3,38.4,87.4,38.4,89.5,37.8L89.5,37.8z M71.3,37.7c0.1-0.1,0.2-0.2,0.2-0.3
		c0-0.1,0.1-0.3,0.1-0.5V24.3h3.7c0.2,0,0.4,0,0.7-0.1c0.2-0.1,0.3-0.2,0.4-0.3c0.1-0.3,0.2-0.6,0.3-0.9c0.1-0.3,0.1-0.6,0.1-0.9
		c0-0.1,0-0.3-0.1-0.4c0-0.1-0.1-0.2-0.2-0.3c-0.1,0-0.2-0.1-0.3-0.1c-0.2,0-0.3,0-0.5,0H64.1c-0.2,0-0.4,0-0.7,0.1
		c-0.2,0.1-0.3,0.2-0.4,0.3c-0.1,0.3-0.2,0.5-0.3,0.8c-0.1,0.3-0.1,0.7-0.1,1c0,0.2,0,0.3,0.1,0.5c0,0.1,0.1,0.2,0.2,0.3
		c0.2,0.1,0.5,0.1,0.7,0.1h4.1V37c0,0.3,0.1,0.5,0.3,0.7c0.2,0.2,0.8,0.3,1.6,0.3C70.6,38,71.1,37.9,71.3,37.7L71.3,37.7z"/>
	<path class="st1" d="M3.7,12.2h13c1.3,0,2.2,0.4,2.6,2.2c0.4,2,0.3,3.4-2,3.6l-4.1,0.3c3,18.9,20.5,25.1,30.1,4.7
		c1.6-3.4,2.1-4,3.8-3.6c2.3,0.6,2.7,1.8,1.5,5.2c-8.2,25.2-36,27.7-41.4-5.9l-3.3,0.2c-2.7,0.2-2.8-2.1-2.8-3.3
		C1.1,13.1,2,12.2,3.7,12.2z"/>
	<circle class="st1" cx="50.9" cy="4.8" r="4.8"/>
</g>
<g id="Layer_5_4_">
	<line class="st5" x1="173.7" y1="20.4" x2="151.2" y2="20.4"/>
</g>
<path id="line2_3_" vector-effect="non-scaling-stroke" class="st4" d="M317.7,17.9"/>
<path id="line2_1_" vector-effect="non-scaling-stroke" class="st4" d="M398.6,17.9"/>
<g>
	<title>Artboard 1</title>
	<path class="st1" d="M100.5,37.7c0.1-0.1,0.2-0.2,0.2-0.3c0.1-0.1,0.1-0.3,0.1-0.5V22.2c0-0.2,0-0.3-0.1-0.5c0-0.1-0.1-0.2-0.2-0.3
		c-0.2-0.2-0.7-0.3-1.6-0.3s-1.3,0.1-1.6,0.3c-0.1,0.1-0.2,0.2-0.2,0.3c0,0.1-0.1,0.3-0.1,0.5V37c0,0.3,0.1,0.5,0.3,0.7
		c0.2,0.2,0.8,0.3,1.6,0.3C99.8,38,100.3,37.9,100.5,37.7z M89.5,37.8c0.8-0.3,1.5-0.7,2.1-1.2c0.5-0.5,1-1.1,1.2-1.8
		c0.3-0.7,0.4-1.5,0.4-2.3V22.2c0-0.3-0.1-0.5-0.3-0.7c-0.2-0.2-0.8-0.3-1.6-0.3s-1.3,0.1-1.6,0.3c-0.1,0.1-0.2,0.2-0.2,0.3
		c-0.1,0.1-0.1,0.3-0.1,0.5v10.3c0,0.4-0.1,0.8-0.2,1.2c-0.2,0.5-0.5,0.8-0.9,1.1c-0.6,0.3-1.2,0.4-1.9,0.4c-0.5,0-0.9-0.1-1.4-0.2
		c-0.4-0.1-0.7-0.3-0.9-0.6c-0.2-0.2-0.4-0.5-0.5-0.9c-0.1-0.4-0.2-0.7-0.2-1.1V22.2c0-0.3-0.1-0.5-0.3-0.7
		c-0.2-0.2-0.8-0.3-1.6-0.3s-1.3,0.1-1.6,0.3c-0.1,0.1-0.2,0.2-0.2,0.3c0,0.2-0.1,0.3-0.1,0.5v10.3c0,0.8,0.1,1.6,0.4,2.3
		c0.2,0.7,0.7,1.3,1.2,1.8c0.6,0.5,1.3,1,2.1,1.2C85.3,38.4,87.4,38.4,89.5,37.8L89.5,37.8z M71.3,37.7c0.1-0.1,0.2-0.2,0.2-0.3
		c0-0.1,0.1-0.3,0.1-0.5V24.3h3.7c0.2,0,0.4,0,0.7-0.1c0.2-0.1,0.3-0.2,0.4-0.3c0.1-0.3,0.2-0.6,0.3-0.9c0.1-0.3,0.1-0.6,0.1-0.9
		c0-0.1,0-0.3-0.1-0.4c0-0.1-0.1-0.2-0.2-0.3c-0.1,0-0.2-0.1-0.3-0.1c-0.2,0-0.3,0-0.5,0H64.1c-0.2,0-0.4,0-0.7,0.1
		c-0.2,0.1-0.3,0.2-0.4,0.3c-0.1,0.3-0.2,0.5-0.3,0.8c-0.1,0.3-0.1,0.7-0.1,1c0,0.2,0,0.3,0.1,0.5c0,0.1,0.1,0.2,0.2,0.3
		c0.2,0.1,0.5,0.1,0.7,0.1h4.1V37c0,0.3,0.1,0.5,0.3,0.7c0.2,0.2,0.8,0.3,1.6,0.3C70.6,38,71.1,37.9,71.3,37.7L71.3,37.7z"/>
	<path class="st1" d="M3.7,12.2h13c1.3,0,2.2,0.4,2.6,2.2c0.4,2,0.3,3.4-2,3.6l-4.1,0.3c3,18.9,20.5,25.1,30.1,4.7
		c1.6-3.4,2.1-4,3.8-3.6c2.3,0.6,2.7,1.8,1.5,5.2c-8.2,25.2-36,27.7-41.4-5.9l-3.3,0.2c-2.7,0.2-2.8-2.1-2.8-3.3
		C1.1,13.1,2,12.2,3.7,12.2z"/>
	<circle class="st1" cx="50.9" cy="4.8" r="4.8"/>
</g>
<g id="Layer_5_3_">
	<line class="st5" x1="173.7" y1="20.4" x2="151.2" y2="20.4"/>
</g>
<g>
	<path class="st6" d="M394.3,31.1c0.1,0,0.1-0.2,0.2-0.2c0.4-0.9,0.9-1.8,1.3-2.7c0.1-0.1,0.1-0.2,0.3-0.2c5.3,0,10.7,0,16,0
		c0,0,0.1,0,0.1,0c0,0.1,0,0.2-0.1,0.2c-0.5,1-1,1.9-1.4,2.9c-0.1,0.2-0.2,0.2-0.4,0.2c-5.2,0-10.5,0-15.7,0c-0.1,0-0.2,0-0.3,0
		C394.3,31.3,394.3,31.2,394.3,31.1z"/>
	<path class="st2" d="M467.7,14.6c0.3-0.3,0.5-0.6,0.8-0.8c0.7-0.5,1.6-0.8,2.5-0.8c0.9-0.1,1.8-0.1,2.6,0.2
		c0.8,0.2,1.5,0.7,1.9,1.4c0.2-0.2,0.4-0.4,0.6-0.6c0.7-0.6,1.6-0.9,2.5-1c1.1-0.1,2.1-0.1,3.1,0.3c1.4,0.5,2.1,1.5,2.1,2.9
		c0,2.4,0,4.7,0,7.1c0,0.2,0,0.2-0.2,0.2c-1.3,0-2.5,0-3.8,0c-0.2,0-0.2-0.1-0.2-0.2c0-1.8,0-3.6,0-5.3c0-0.4,0-0.8-0.1-1.1
		c-0.2-0.8-0.6-1.2-1.5-1.3c-0.4,0-0.8,0-1.1,0.1c-0.8,0.2-1.1,0.8-1.3,1.5c-0.1,0.4-0.1,0.7-0.1,1.1c0,1.7,0,3.4,0,5.1
		c0,0.2-0.1,0.3-0.3,0.3c-1.1,0-2.2,0-3.4,0c-0.2,0-0.3-0.1-0.3-0.3c0-2,0-4,0-6c0-0.2,0-0.4-0.1-0.7c-0.2-0.7-0.7-1.1-1.4-1.1
		c-0.4,0-0.8,0-1.2,0.1c-0.7,0.2-1.1,0.7-1.3,1.5c-0.1,0.4-0.1,0.7-0.1,1.1c0,1.7,0,3.4,0,5.1c0,0.2-0.1,0.3-0.3,0.3
		c-1.3,0-2.5,0-3.8,0c-0.2,0-0.2-0.1-0.2-0.3c0-3.3,0-6.5,0-9.8c0-0.2,0.1-0.3,0.3-0.3c1.2,0,2.5,0,3.7,0c0.2,0,0.3,0,0.2,0.2
		C467.7,13.8,467.7,14.1,467.7,14.6z"/>
	<path class="st6" d="M433.4,28c0.2,0,0.5,0,0.7,0.1c0.4,0.1,0.6,0.4,0.4,0.9c0,0.1-0.1,0.3-0.2,0.4c-1.1,2.2-2.2,4.3-3.2,6.6
		c-0.5,1-1.3,1.4-2.3,1.5c-4.2,0-8.4,0-12.7,0c-0.2,0-0.2-0.1-0.1-0.2c0.5-1,1-1.9,1.4-2.9c0.1-0.2,0.2-0.2,0.4-0.2
		c3.5,0,6.9,0,10.4,0c0.2,0,0.3-0.1,0.4-0.3c0.4-0.7,0.7-1.4,1.1-2.2c0.2-0.3,0.2-0.3-0.2-0.3c-3.4,0-6.8,0-10.2,0c-1,0-2.1,0-3.1,0
		c-0.3,0-0.3,0-0.2-0.3c0.5-1,1-1.9,1.4-2.9c0.1-0.2,0.2-0.2,0.4-0.2c2.4,0,4.8,0,7.2,0c0.2,0,0.4,0,0.5,0
		C425.6,28,430.8,28,433.4,28z"/>
	<path class="st2" d="M457,19.1c-1.3,0-2.7,0-4,0c-0.2,0-0.3,0.1-0.2,0.3c0,0.2,0,0.4,0.1,0.6c0.2,0.8,0.8,1.3,1.7,1.4
		c0.6,0.1,1.2,0,1.7-0.2c0.4-0.1,0.7-0.4,0.8-0.8c0.1-0.1,0.1-0.2,0.2-0.2c1.2,0,2.4,0,3.6,0c0.2,0,0.2,0.1,0.1,0.2
		c-0.5,1.3-1.4,2.1-2.6,2.7c-1.1,0.5-2.4,0.7-3.6,0.7c-1.1,0-2.1-0.2-3.1-0.6c-1.8-0.8-2.8-2.1-3-4.1c-0.2-1.5,0.1-2.9,1-4.1
		c0.8-1,1.9-1.6,3.1-1.9c1.7-0.4,3.4-0.4,5.1,0.2c1.9,0.7,3.1,2.1,3.4,4.2c0.1,0.5,0.1,0.9,0.1,1.4c0,0.2-0.1,0.3-0.3,0.3
		C459.6,19.1,458.3,19.1,457,19.1z M454.9,17.2c0.7,0,1.4,0,2.1,0c0.2,0,0.3-0.1,0.2-0.2c0-0.1,0-0.1,0-0.2c-0.2-1-0.7-1.5-1.8-1.7
		c-1.5-0.2-2.6,0.4-2.9,1.9c0,0.2,0,0.2,0.2,0.2C453.5,17.2,454.2,17.2,454.9,17.2z"/>
	<path class="st2" d="M451.1,35.8c-0.6,0.6-1.3,1.1-2.1,1.3c-1.5,0.4-3,0.4-4.5-0.3c-1-0.5-1.4-1.4-1.5-2.4c0-2.5,0-4.9,0-7.4
		c0-0.1,0-0.2,0.2-0.2c1.3,0,2.5,0,3.8,0c0.2,0,0.2,0.1,0.2,0.2c0,1.8,0,3.6,0,5.5c0,0.4,0,0.8,0.1,1.2c0.1,0.7,0.5,1,1.2,1.1
		c0.4,0.1,0.8,0.1,1.3-0.1c0.7-0.2,1.1-0.7,1.2-1.5c0.1-0.4,0-0.7,0-1.1c0-1.7,0-3.4,0-5.1c0-0.2,0-0.3,0.3-0.3c1.2,0,2.4,0,3.6,0
		c0.2,0,0.2,0,0.2,0.2c0,3.3,0,6.6,0,9.8c0,0.2,0,0.3-0.2,0.3c-1.2,0-2.4,0-3.6,0c-0.2,0-0.2,0-0.2-0.2
		C451.1,36.6,451.1,36.2,451.1,35.8z"/>
	<path class="st2" d="M426.9,20.3c0.6,0,1.3,0,1.9,0c0.1,0,0.2,0,0.2,0.1c0.1,0.7,0.7,1,1.3,1.2c0.7,0.1,1.4,0.1,2.1-0.1
		c0.2-0.1,0.4-0.2,0.6-0.3c0.4-0.4,0.3-0.9-0.2-1.1c-0.4-0.2-0.8-0.3-1.2-0.4c-1.5-0.3-2.9-0.6-4.3-1.2c-0.6-0.2-1.1-0.5-1.5-0.9
		c-0.7-0.8-0.7-2.1-0.1-3c0.5-0.7,1.1-1.1,1.9-1.4c1.3-0.5,2.7-0.5,4.1-0.5c1.2,0,2.3,0.2,3.4,0.7c0.9,0.4,1.6,1.1,1.8,2.1
		c0,0.2,0,0.2-0.2,0.2c-1.2,0-2.4,0-3.6,0c-0.1,0-0.2,0-0.2-0.1c-0.2-0.5-0.6-0.8-1.1-0.9c-0.6-0.1-1.2-0.1-1.7,0.1
		c-0.3,0.1-0.5,0.2-0.6,0.5c-0.1,0.4,0,0.7,0.4,0.9c0.5,0.2,1,0.3,1.5,0.4c1.3,0.3,2.7,0.6,4,1c0.7,0.2,1.4,0.6,1.7,1.3
		c0.6,1.1,0.3,2.5-0.7,3.3c-0.8,0.7-1.8,1-2.8,1.2c-1.2,0.2-2.5,0.3-3.7,0.2c-1.3-0.1-2.5-0.4-3.6-1.1c-0.7-0.5-1.3-1.1-1.5-2
		c-0.1-0.4-0.1-0.4,0.3-0.4C425.7,20.3,426.3,20.3,426.9,20.3z"/>
	<path class="st2" d="M408.6,15.8c-0.4,0-0.8,0-1.2,0c-0.8,0-1.7,0-2.5,0c-0.1,0-0.2,0.1-0.2-0.1c-0.2-0.5-0.6-0.8-1.1-0.9
		c-0.6-0.1-1.2-0.1-1.8,0.1c-0.4,0.2-0.6,0.5-0.5,0.9c0.1,0.3,0.3,0.4,0.5,0.5c0.6,0.3,1.2,0.3,1.8,0.5c1.2,0.3,2.5,0.5,3.7,1
		c0.8,0.3,1.4,0.9,1.6,1.8c0.3,1.1-0.2,2.3-1.2,3c-0.8,0.6-1.8,0.9-2.8,1c-1.1,0.2-2.1,0.2-3.2,0.1c-1.2-0.1-2.4-0.3-3.5-1
		c-0.8-0.5-1.3-1.2-1.5-2.2c0-0.2,0-0.2,0.2-0.2c1.2,0,2.4,0,3.7,0c0.1,0,0.2,0,0.2,0.1c0.1,0.7,0.6,1,1.3,1.2
		c0.7,0.1,1.3,0.1,2-0.1c0.3-0.1,0.6-0.2,0.7-0.5c0.2-0.4,0-0.7-0.4-0.9c-0.4-0.2-0.9-0.3-1.3-0.4c-1.5-0.3-2.9-0.6-4.3-1.3
		c-0.5-0.2-1-0.6-1.3-1.1c-0.5-0.8-0.4-2.2,0.3-3c0.7-0.8,1.6-1.1,2.5-1.4c1.2-0.3,2.5-0.3,3.8-0.2c0.9,0.1,1.8,0.2,2.7,0.7
		C407.8,14,408.5,14.7,408.6,15.8z"/>
	<path class="st2" d="M487.9,20.3c0.6,0,1.2,0,1.9,0c0.1,0,0.2,0,0.2,0.1c0.1,0.7,0.6,1,1.3,1.2c0.7,0.1,1.3,0.1,2-0.1
		c0.2-0.1,0.4-0.1,0.5-0.3c0.4-0.4,0.4-0.9-0.2-1.2c-0.3-0.2-0.7-0.2-1.1-0.3c-1.4-0.3-2.8-0.6-4.2-1.2c-0.5-0.2-1.1-0.5-1.5-1
		c-0.7-0.8-0.7-2.1-0.1-3c0.6-0.8,1.4-1.2,2.3-1.5c1.3-0.4,2.6-0.4,4-0.3c1,0.1,2,0.2,2.9,0.7c0.9,0.4,1.5,1.1,1.7,2.1
		c0,0.2,0,0.2-0.2,0.2c-1.2,0-2.4,0-3.6,0c-0.1,0-0.2,0-0.2-0.1c-0.2-0.5-0.6-0.8-1.1-0.9c-0.5-0.1-1-0.1-1.5,0
		c-0.1,0-0.2,0.1-0.3,0.1c-0.3,0.1-0.4,0.4-0.4,0.7c0,0.3,0.2,0.5,0.4,0.6c0.5,0.2,0.9,0.3,1.4,0.4c1.3,0.3,2.6,0.6,3.9,1
		c0.9,0.3,1.6,0.8,1.9,1.7c0.4,1.2-0.1,2.5-1.2,3.2c-0.8,0.6-1.8,0.9-2.7,1c-1.1,0.2-2.2,0.2-3.2,0.1c-1.2-0.1-2.4-0.4-3.5-1
		c-0.8-0.5-1.3-1.3-1.5-2.2c0-0.1,0-0.2,0.2-0.2C486.7,20.3,487.3,20.3,487.9,20.3z"/>
	<path class="st2" d="M460,34c0.6,0,1.2,0,1.9,0c0.1,0,0.2,0,0.2,0.2c0.1,0.7,0.6,1,1.3,1.1c0.6,0.1,1.3,0.1,1.9,0
		c0.2-0.1,0.4-0.2,0.6-0.3c0.4-0.4,0.4-0.9-0.1-1.2c-0.5-0.2-1-0.3-1.5-0.4c-1.4-0.3-2.9-0.6-4.2-1.3c-0.6-0.3-1.1-0.6-1.4-1.3
		c-0.5-1-0.2-2.3,0.7-3c0.7-0.7,1.6-1,2.5-1.1c1.8-0.3,3.5-0.3,5.3,0.2c0.9,0.2,1.7,0.7,2.2,1.5c0.2,0.3,0.3,0.6,0.4,1
		c0,0.1,0,0.2-0.1,0.2c-1.2,0-2.4,0-3.6,0c-0.1,0-0.2,0-0.2-0.1c-0.2-0.5-0.6-0.8-1.1-0.9c-0.5-0.1-1.1-0.1-1.6,0.1
		c-0.3,0.1-0.5,0.2-0.6,0.5c-0.1,0.4,0,0.7,0.4,0.9c0.4,0.2,0.9,0.3,1.3,0.4c1.3,0.3,2.6,0.6,3.9,1c0.9,0.3,1.6,0.8,1.9,1.7
		c0.4,1.2,0,2.4-1.2,3.3c-0.8,0.6-1.7,0.8-2.6,1c-1.2,0.2-2.4,0.2-3.5,0.1c-1.2-0.1-2.3-0.4-3.3-1c-0.8-0.5-1.3-1.2-1.5-2.2
		c0-0.2,0-0.2,0.1-0.2C458.8,34,459.4,34,460,34z"/>
	<path class="st2" d="M444.7,8.9c0,1.3,0,2.6,0,3.9c0,0.2,0.1,0.3,0.3,0.3c0.7,0,1.4,0,2.1,0c0.2,0,0.2,0,0.2,0.2c0,0.5,0,1.1,0,1.6
		c0,0.2,0,0.3-0.2,0.3c-0.7,0-1.4,0-2.1,0c-0.2,0-0.2,0.1-0.2,0.2c0,1.6,0,3.2,0,4.7c0,0.8,0.3,1.1,1.1,1.2c0.3,0,0.5,0,0.8,0
		c0.1,0,0.2,0,0.2,0.2c0,0.6,0,1.2,0,1.8c0,0.1,0,0.2-0.1,0.2c-1,0.2-2,0.2-3,0.2c-0.5,0-1-0.1-1.4-0.3c-0.9-0.4-1.3-1.1-1.4-1.9
		c-0.1-0.6-0.2-1.2-0.2-1.8c0-1.4,0-2.8,0-4.2c0-0.2-0.1-0.3-0.3-0.3c-0.8,0-1.6,0-2.4,0c-0.2,0-0.2-0.1-0.2-0.3c0-0.5,0-1.1,0-1.6
		c0-0.2,0-0.2,0.2-0.2c0.9,0,1.7,0,2.6,0c0.2,0,0.2,0,0.2-0.2c0-0.7,0-1.5,0-2.2c0-0.1,0-0.2,0.1-0.3C442,9.9,443.3,9.4,444.7,8.9z"
		/>
	<path class="st2" d="M439.7,30.2c0,2.2,0,4.5,0,6.7c0,0.2-0.1,0.3-0.3,0.3c-1.2,0-2.4,0-3.6,0c-0.2,0-0.2,0-0.2-0.2
		c0-4.5,0-9,0-13.5c0-0.2,0-0.2,0.2-0.2c1.2,0,2.4,0,3.6,0c0.2,0,0.3,0.1,0.3,0.3C439.7,25.7,439.7,27.9,439.7,30.2z"/>
	<path class="st6" d="M414.9,32c-0.4,0.8-0.8,1.6-1.2,2.4c-1.9,3.9-3.8,7.7-5.8,11.6c-0.1,0.2-0.2,0.3-0.4,0.3c-1.1,0-2.2,0-3.3,0
		c-0.2,0-0.3,0-0.2-0.2c2.3-4.6,4.6-9.2,6.9-13.9c0.1-0.1,0.1-0.2,0.3-0.2C412.4,32,413.6,32,414.9,32z"/>
	<path class="st6" d="M417.3,19.5c0.1,0,2.2-4.2,3.1-6.2c0.1-0.2,0.2-0.2,0.4-0.2c1.1,0,2.3,0,3.4,0c0,0.1-0.1,0.2-0.1,0.3
		c-2.3,4.6-4.6,9.2-6.9,13.8c-0.1,0.2-0.2,0.2-0.4,0.2c-1.1,0-2.2,0-3.3,0c0-0.1,0.1-0.2,0.1-0.3c0.6-1.1,1.8-3.6,1.8-3.7
		c0.2-0.3,0.3-0.7,0.5-1C416.4,21.4,416.8,20.5,417.3,19.5z"/>
	<path class="st2" d="M417.3,19.5c-0.5,0.9-0.9,1.9-1.4,2.8c-0.2,0.3-0.3,0.7-0.5,1c-0.4-0.5-0.7-1.1-1-1.7
		c-1.6-2.8-3.1-5.6-4.7-8.4c0-0.1-0.1-0.1-0.1-0.2c0.1,0,0.2,0,0.3,0c1.2,0,2.4,0,3.6,0c0.2,0,0.3,0.1,0.4,0.2
		C415,15.4,416.2,17.5,417.3,19.5z"/>
	<path class="st6" d="M411.4,31.4c0.3-0.6,0.6-1.2,0.9-1.7c0.2-0.5,0.5-1,0.7-1.5c0-0.1,0.1-0.2,0.2-0.2c1.2,0,2.4,0,3.7,0
		c0,0.1-0.1,0.2-0.1,0.3c-0.5,1-1,1.9-1.4,2.9c-0.1,0.2-0.2,0.2-0.4,0.2C413.8,31.4,412.6,31.4,411.4,31.4z"/>
</g>
</svg>
