<?xml version="1.0" encoding="utf-8"?>
<svg version="1.1" xmlns="http://www.w3.org/2000/svg" xmlns:xlink="http://www.w3.org/1999/xlink" id="logo" viewBox="0 0 1849.5133057 356.7344055" width="100%" height="100%" xml:space="preserve">
<style type="text/css">
	.white{fill:#fff;}
</style>
    <g>    
        <path class="white" d="M152.9851 169.8076c5.2195-11.4889 17.22832-33.9367 23.4927-44.90564l24.54263-44.90062h88.76137L202.06532 211.5785l93.46093 138.36653h-94.50582l-24.54262-41.25098c-8.8741-15.66348-21.9278-40.20108-29.7621-55.86454h-1.0399c-7.8342 15.6635-19.843 36.5465-31.3319 56.3896l-23.4927 40.726H0l94.5058-138.8865L7.3093 80.0014h95.02574l25.5875 44.90062c6.2644 10.96893 18.79317 33.9417 24.01768 44.90562h1.0449z"></path>
        <path class="white" d="M473.43118 305.03943c-17.75326 30.28705-48.56027 50.12512-92.41598 50.12512-53.7798 0-93.4659-32.8918-93.4659-84.5818 0-59.00423 51.17-89.2863 140.98125-89.2863 10.96396 0 25.58252.51997 38.63626 1.56486 0-37.5963-20.8879-53.2598-60.5691-53.2598-28.7172 0-61.089 9.3991-85.6316 22.9778l-2.6097-59.5242c28.1972-13.5787 68.9233-19.8431 101.2951-19.8431 87.1965 0 124.2679 41.251 124.2679 112.2591 0 17.2333-1.0448 45.9505-1.0448 67.8784 0 48.5603 1.56984 79.3673 3.6546 96.5956h-71.533c-1.0399-4.17952-1.56486-13.57362-1.56486-21.4079 0-5.7444.52496-14.0986 1.0449-23.4977h-1.0449zm-26.6274-78.84233c-51.68998 0-80.40717 11.48887-80.40717 40.2061 0 22.97275 15.6635 33.93667 40.2011 33.93667 35.5066 0 61.614-24.01763 61.614-73.09787-6.2644-.51995-13.5786-1.0449-21.4079-1.0449zm215.1341-100.25024C681.78088 94.6199 715.7176 73.212 754.35882 73.212c68.91833 0 100.7702 43.86072 100.7702 116.9586v159.77444h-81.4521V220.9776c0-51.17-6.26934-81.977-45.9505-81.977-24.01763 0-41.24596 12.53376-51.17003 31.33193-7.8293 15.6635-10.964 37.0714-10.964 60.5641v119.0484h-81.452V165.633c0-24.54262-.525-53.25982-2.6098-85.63166h77.2725c1.0448 11.48387 2.0898 31.8469 2.0898 45.94552h1.0449zm206.51677-45.94552h54.30475V26.10746L1000.03186 0v80.00134h64.74365v57.95435h-64.7436v105.4747c0 28.1922 5.7495 50.1251 39.1662 50.1251 9.3992 0 19.3181-1.0449 27.6674-3.6547l2.08987 57.4344c-15.65856 4.1796-35.5066 6.2694-52.7349 6.2694-66.8335 0-96.0707-30.2871-96.0707-99.7303V137.9557h-51.695V80.00133zm424.37933 223.99816c-18.78808 31.32698-51.68493 52.7349-97.11047 52.7349-57.9543 0-96.0706-41.251-96.0706-103.38494V80.00134h81.4521V224.1123c0 41.24597 11.4789 65.26364 46.46547 65.26364 36.0265 0 59.5243-33.41675 59.5243-77.79743V80.0014h82.50196v190.05648c0 28.19727 0 57.43442 2.60974 79.8872h-76.23256c-1.04995-10.96392-2.08987-28.19723-2.08987-45.94552h-1.04994zm198.03077-168.65355c13.56872-39.1612 38.11633-62.13396 78.84228-62.13396 9.39917 0 18.79822 1.0449 26.10755 3.6546l-2.08985 69.4432c-8.87915-3.1297-17.7583-4.1746-27.67737-4.1746-47.51538 0-68.3933 33.9367-68.3933 104.9498v102.86h-83.02186V160.4085c0-28.7172-.52002-57.95435-2.60974-80.40716h75.18262c1.04992 10.96392 2.60974 40.20608 2.60974 55.3446h1.04993zm285.54565 169.69348c-17.7483 30.28705-48.5553 50.12512-92.42102 50.12512-53.77478 0-93.46094-32.8918-93.46094-84.5818 0-59.00423 51.17505-89.2863 140.97632-89.2863 10.969 0 25.58753.51997 38.63623 1.56486 0-37.5963-20.878-53.2598-60.5641-53.2598-28.7172 0-61.094 9.3991-85.6317 22.9778l-2.6098-59.5242c28.1972-13.5787 68.9233-19.8431 101.3001-19.8431 87.1915 0 124.2679 41.251 124.2679 112.2591 0 17.2333-1.0499 45.9505-1.0499 67.8784 0 48.5603 1.5698 79.3673 3.65965 96.5956h-71.5331c-1.0499-4.1795-1.5698-13.5736-1.5698-21.4079 0-5.7444.5199-14.0986 1.04992-23.4977h-1.04995zm-26.62744-78.84233c-51.69495 0-80.4121 11.48887-80.4121 40.2061 0 22.97275 15.66845 33.93667 40.20604 33.93667 35.5066 0 61.61402-24.01763 61.61402-73.09787-6.2694-.51995-13.57874-1.0449-21.40796-1.0449z"></path>
    </g>
</svg>